<?xml version="1.0" encoding="UTF-8"?>
<svg version="1.1" viewBox="0 0 1024 1024" width="1280" height="1280" xmlns="http://www.w3.org/2000/svg">
<path transform="translate(0)" d="m0 0h1024v1024h-1024z" fill="#D6D8D7"/>
<path transform="translate(462,52)" d="m0 0h22l8 1 1 3-1 36 2 1-6 4-11 1 1 19v16l3-1v2h28l17-2 2-1h19l17 1 2 1-1 2 1 3 1 24 1-1v-21l27 1 13 1 1 2-2 1 1 1v19l21 1 1 2-2 1 2 2v18h2v-18l25 1 2 2-2 1 1 1 1 14 10 2-4 2 3 1 2 5-1 39h2v-37l1-3h21l3 4v34l-1 139-1 99-2 2-4 1h-32l-5-2v-80l1-68v-81l-2 7-7 2v2l-12 5-10 6v3l1 2 12 1 3 3v31l-8 6-3 2h-59l-3 3-1 61 2 3 11 1-2-2v-59l4-2h26l14 1 3 2 1 26 11 1 3 5v8h2l1-2 1 4-1 2v18 3l-3 1 4 4 4 3-1 3 1 7v29l-2 2 1 1v14h2l-1-4 1-12h3v6h-1l-1 5 2 1v3h-2l-1 6-3 1v4l6 1 1 11-3 3-2 1h-78v17h56l7-3h14l6 3 4 4 67 1 9 3 5 5 1 2v54l-1 20-11-2-1 20 1-1 1-9h2l1-2 4-1 3-3 3-1h7l-3 16v8l-1 1 7 2v1h-7l1 3-3 23 11 3v1l-10 1-1 1v14l-1 8 3-1v2l-2 1 8 2v1l-14 2v2l-16-1h-4l-1 21 13 1 5 1 2-20h5l-1 22h-3l-1 34-3 7-6 4-72 1-41 1v7l-4 5-4 10-6 16-2 6v8l4 2 3 1h13l6 3 1 2v7l-4 2-27 2-5 1 2 1v2h-2v2l-3 3-1 7v20l3 9 9 4 8 2h18l6 2v2h-2v2l4-4-1-3 6 1 3 2v2l-6 2v2h2v14l-25 2-16 1h-17v20l-20 1-8 1 8 3 14 2 5 5 2 3 2 24 2 7 4 3h51l32-1 9 1v2l-9 2-27 2-5 1-26 1-21 2-54 1-7 1v2l-20 2-17 1-5 1-34 2-20 2h-44l-10-2-16-4-1-3h-6l-2-2-7-2-5-2-1-3 4-2-2-4v-42l1-1h8l15 3h7l-2-7-2-4v-29l1-1h7l21 4-13-3-3-2 2-23 4-36v-6l4-3-2-3v-12h-3v-34l4-1-5-1-1-7v-17l1-1-3-2-2-18v-2h-2v20l-1 1h-10l4 24-6 2-1 3-13 4h-2l5 13 1 9h2l1-3v2l14-1v3l-5 2h-4v6l4 8 3 7 19-3-4 4-13 6-8 4-7-1-2-3-6 4-3-1-7-17-1-5 5-5 7-2-8-1-7 1h-9l-5-18v-5l4-3 3-1h11v-2l-14 1-7-1-1-1-3-23 3-1-4-1-2-17 1-5 6-1-3-2v-46l11-1-1-4 6-44 3-1-1-2 1-13 5-25v-7l-3-1-1-2v-10l5-25 5-16 3-5 3-7 9-10 5-3h27l8 2 9 3 25 1v-2h-9l-1-1-1-19-38-1-23-1h-50l-13-1-2-3v-58l11 1 4-2 5-5 2-5 8-16 3-11h2l3-8v-35l-4-13h-2l-4-10v5l2 6 2 11v32l-3 18-4 13-5 9-4 2-2 4-6 3h-6l-6-2-6-7-6-12-4-14-2-15v-29l4-20 5-12 6-8 8-7h13l-2-1h-11v-92l5-2 46-4 25-2 9-1-21 1-12 1h-13v-17l3-2 43-4 15-2h6v-2l-3 1-14 1v-18l8-2 39-4 34-4v-20l4-1-1-16h-4v-2h-15l-1-2v-37z" fill="#286268"/>
<path transform="translate(646,496)" d="m0 0 4 2 3 3 67 1 9 3 5 5 1 2v54l-1 20-11-2-1 20 1-1 1-9h2l1-2 4-1 3-3 3-1h7l-3 16v8l-1 1 7 2v1h-7l1 3-3 23 11 3v1l-10 1-1 1v14l-1 8 3-1v2l-2 1 8 2v1l-14 2v2l-16-1h-4l-1 21 13 1 5 1 2-20h5l-1 22h-3l-1 34-3 7-6 4-72 1-41 1v7l-4 5-4 10-6 16-2 6v8l4 2 3 1h13l6 3 1 2v7l-4 2-27 2-5 1 2 1v2h-2v2l-3 3-1 7v20l3 9 9 4 8 2h18l6 2v2h-2v2l4-4-1-3 6 1 3 2v2l-6 2v2h2v14l-25 2-16 1h-17v20l-20 1-8 1 8 3 14 2 5 5 2 3 2 24 2 7 4 3h51l32-1 9 1v2l-9 2-27 2-5 1-26 1-21 2-54 1-7 1v2l-20 2-17 1-5 1-34 2-20 2h-44l-10-2-16-4-1-3h-6l-2-2-7-2-5-2-1-3 4-2-2-4v-42l1-1h8l15 3h7l-2-7-2-4v-29l1-1h7l21 4-13-3-3-2 2-23 4-36v-6l4-3-2-3v-12h-3v-34l4-1-5-1-1-7v-17l1-1-3-3 1-17 3-2h36v-2l-5-1-1-5 2-5 1-8h3l6 8 7 6v2l6 2 12 5h20l1-1-14-9-4-5-2-4-7-11-3-5-4-2-2-2-3-1v3h-21v-10h-10l-2-16-2-14v-7l17-1v-18l2-12 2-8 5-37 1-21h2l1-8 5-6 4-11 2-6 6-2 11-2 141-1 30-1 3 2h12l2-4z" fill="#A76B67"/>
<path transform="translate(430,237)" d="m0 0 76 2 2 1 68 2h23l16 1 38 1-2 4-1 6-7 2v2l-12 5-10 6v3l1 2 12 1 3 3v31l-8 6-3 2h-59l-3 3-1 61 2 3 11 1-2-2v-59l4-2h26l14 1 3 2 1 26 11 1 3 5v8h2l1-2 1 4-1 2v18 3l-3 1 4 4 4 3-1 3 1 7v29l-2 2 1 1v14h2l-1-4 1-12h3v6h-1l-1 5 2 1v3h-2l-1 6-3 1v4l6 1 1 11-3 3-2 1h-78v17h-1l-1-18-36-1-53-1-1-1h-33l-12-1-1-2v-122l1-103z" fill="#D5BAAE"/>
<path transform="translate(462,52)" d="m0 0h22l8 1 1 3-1 36 2 1-6 4-11 1 1 19v16l3-1v2h28l17-2 2-1h19l17 1 2 1-1 2 1 3 1 24 1-1v-21l27 1 13 1 1 2-2 1 1 1v19l21 1 1 2-2 1 2 2v18h2v-18l25 1 2 2-2 1 1 1 1 14 10 2-4 2 3 1 2 5-1 39h2v-37l1-3h21l3 4v34l-1 139-1 99-2 2-4 1h-32v-1l8-1-3-2v-52l2-148 1-31h-13l-92-3-60-2-20-1-49-1-3-1-1-12v-32l1-6-9 2-2 2-6 2v2h-2l-1 7v33l3 6 8 3v230l-4 2-27-1-4-1v-286l-3-1-21 1-12 1h-13v-17l3-2 43-4 15-2h6v-2l-3 1-14 1v-18l8-2 39-4 34-4v-20l4-1-1-16h-4v-2h-15l-1-2v-37z" fill="#5AA8B0"/>
<path transform="translate(571,503)" d="m0 0h5l-1 9v24l-2 96-1 32h-1v-56l-1 56-1 20-1 43-3 10 5 5 4 3-6-1v2l21 1v1h-14l-1 5-3 3-4 14-2 1-1 11-1 26 28-1h25l-3 2-2 1 7 2 1 5-13 2-17 1-5 1 2 1v2h-2v2l-3 3-1 7v20l3 9 9 4 8 2h18l6 2v2h-2v2l4-4-1-3 6 1 3 2v2l-6 2v2h2v14l-25 2-16 1h-17v20l-20 1-8 1 8 3 14 2 5 5 2 3 2 24 2 7 4 3h51l32-1 9 1v2l-9 2-27 2-5 1-26 1-21 2-54 1-7 1v2l-20 2-17 1-5 1-34 2-20 2h-44l-10-2-16-4-1-3h-6l-2-2-7-2-5-2-1-3 4-2-2-4v-42l1-1h8l15 3h7l-2-7-2-4v-29l1-1h7l21 4-13-3-3-2 2-23 4-36v-6l4-3-2-3v-12h-3v-34l4-1-5-1-1-7v-17h12l1-4h17v1h-12l1 6v19h17l-2 1v3h-14l1 31 13 1v20l7-1 33-1h18l2 3v6l-5 3-47 3h-9l-1 27-1 13v13l2-2v8h5l1 4 4 1 4 9 1 2 12 1v1l-18 1v19l-1 1h-22l-12-1-1 1 27 6 2 1 1 3 5 2 1 8 3 9 3 14 3 3 7 2h17l43-2 11-1h16v2l3-1 1-9v-37l-2-2-32-6-3-3 1-4h11l13 2-1-5h-2l-4-9v-26l1-1h11l-1-1 1-14 4-42v-8l3-1-1-2 1-18 4-44v-9l3-2h10l13 1 2-77-3 1h-52l-60-1-14-1-1-2-10-2-9-1-3-9-1-7 21-1 2-4v-8l1-2h5l1 1 1 16 16 2h49l-3-2-1-13-1-24-4-2v-2h-16v-20l21-1v-19h-21v-20l1-1h21l1 1v18h17v-20l-2-1h2l1-2h3v2l17-2 8-3 10-5 3-2 2-9 5-7z" fill="#AC7671"/>
<path transform="translate(874,878)" d="m0 0 85 1h46l12 2 7 1v115l-23 2-8 1-25-2-2-1-18-1-4-1h-14l-13-2h-12l-3-1-12-1-4-2-36-2-5-2-19-1-6-2-9-2-17-1-11-2-17-2-3-1-14-1-9-2-13-2-7-2-14-1-13-4-7-2-6-2-1-10v-29l-1-3-16-4-19-4-2-1-2-14-3-1 1-4 3 1v-5l9 3 45-1 4-2 39-2 30-1 4-1 37-1h22l3 1h28z" fill="#F0F0ED"/>
<path transform="translate(587,525)" d="m0 0h131l5 2 2 2v54l-6 1-2 10-1 11 10 2h7l3-17 3-2h3v8l-1 14-1 2 7 2v1h-7l1 3-3 23 11 3v1l-10 1-1 1v14l-1 8 3-1v2l-2 1 8 2v1l-14 2v2l-16-1h-4l-1 21 13 1 5 1 2-20h5l-1 22h-3l-2 10-1 2-21 1-8-3h-116l-5-5v-65l1-69 1-41 3-5z" fill="#28345A"/>
<path transform="translate(362,494)" d="m0 0h27l6 1v1l-26 1-5 3v2l20-1 13 3 7 5 4 8 2 10v17l-2 12-4 15-3 5-3 9 7-2 4 2 4 4h2l4-17 2-10 2-15h1v10l-5 37-4 20v16l-3 3h-15l3 21 1 16h10v10h21v-3l5 1 3 2 8 11 5 8 3 6 10 7 6 4-2 2h-20l-12-5-6-3-5-5-7-8-3-3-1 8-2 7v3l5 1v2l-22 1h-14l-1 5h-1l-1 13-2-4-1-15h-2v20l-1 1h-10l4 24-6 2-1 3-13 4h-2l5 13 1 9h2l1-3v2l14-1v3l-5 2h-4v6l4 8 3 7 19-3-4 4-13 6-8 4-7-1-2-3-6 4-3-1-7-17-1-5 5-5 7-2-8-1-7 1h-9l-5-18v-5l4-3 3-1h11v-2l-14 1-7-1-1-1-3-23 3-1-4-1-2-17 1-5 6-1-3-2v-46l11-1-1-4 6-44 3-1-1-2 1-13 5-25v-7l-3-1-1-2v-10l5-25 5-16 3-5 3-7 9-10z" fill="#3E3647"/>
<path transform="translate(485,721)" d="m0 0 11 1 8 2h28l5 6-1 4h-2l1 9-4 44-1 18v2l-2 1-1 21-4 38v5l2 2h-13v26l3 9h2l1 5-13-1-11-1 1 5 1 1 32 6 3 3v37l-1 9-4 1v-2l-27 2-43 2h-17l-8-3-3-3-5-22-1-1v-8l-6-1v-4l-20-4-9-2-1-2 5-1 9 1h22l1-19 6-2-4-7-2-5-3-1v-2l-6-2-1-6-2 2v-15l2-34 1-6 39-3 17-1 4-2v-6l-1-1-3-42-2-34-1-4 8-4 6-5z" fill="#C49E96"/>
<path transform="translate(646,496)" d="m0 0 4 2 3 3 67 1 9 3 5 5 1 2v54l-1 20-11-2-1 20 1-1 1-9h2l1-2 4-1 3-3 3-1h7l-1 7h-1v-6l-5 2-3 18h-8l-10-3v-11l2-10 1-1h6l-1-54-2-2-4-1h-131l-4 3-1 3-1 41-1 69v65l4 4h116l8 3h21l2-10h1l-1 32-3 7-6 4-72 1-41 1v7l-4 5-4 10-6 16-2 6v8l4 2 3 1h13l6 3 1 2v7l-3-4-7-1 3-3h-50v-26l1-12h2l4-14 2-3h2l1-5-7-2v-2h3l-6-5-1-4 3-8 1-43 1-20 1-56 1-16h1v40l2-96v-26l2-7-7 2-4 6-2 9-9 6-5 2-9 3-7 1h-9v-2h-2l-1 2-1 1v20h-17l-1-18h-21l-3 1-1 60 1 2 9 1 2 1v2h2l1 3 1 21-2 7-1 2-7 2h-19l-1-1v-26l1-107 3-1 26-1 103-1 30-1 3 2h12l2-4z" fill="#5AA7AF"/>
<path transform="translate(571,503)" d="m0 0h5l-1 9v24l-2 96-1 32h-1v-56l-1 56-1 20-1 43-3 10 5 5 4 3h-13l-14-1-11-2-2-2v-6l3-2h10l13 1 2-77-3 1h-52l-60-1-14-1-1-2-10-2-9-1-3-9-1-7 21-1 2-4v-8l1-2h5l1 1 1 16 16 2h49l-3-2-1-13-1-24-4-2v-2h-16v-20l21-1v-19h-21v-20l1-1h21l1 1v18h17v-20l-2-1h2l1-2h3v2l17-2 8-3 10-5 3-2 2-9 5-7z" fill="#2C7074"/>
<path transform="translate(328,624)" d="m0 0 16 1 46 1-2 14 1 9-2 3h-2l-1 2-5 5-1 8-3 2-7 1h-22v2l3-1h35l3 1 1 2 7 4 6 4 1 5 3 6v2h2l3 5 2 10-4 3-34 1 1 1v20l-1 1h-10l4 24-6 2-1 3-13 4h-2l5 13 1 9h2l1-3v2l14-1v3l-5 2h-4v6l4 8 3 7 19-3-4 4-13 6-8 4-7-1-2-3-6 4-3-1-7-17-1-5 5-5 7-2-8-1-7 1h-9l-5-18v-5l4-3 3-1h11v-2l-14 1-7-1-1-1-3-23 3-1-4-1-2-17 1-5 6-1-3-2v-46l11-1-1-4 5-36z" fill="#B1AAAC"/>
<path transform="translate(332,285)" d="m0 0 9 1 10 9 3 5 5 15 3 14 1 12v26l-4 28-3 16-6 15-5 4-3 2-11 2-5-1-5-6-4-4-3-5-5-1v-1l21-2 1-1h-8l-8-2 7-11 6-15 2-7h2v-45l-4-13h-2l-4-10v5l2 6 2 11v32l-3 18-4 13-5 9-4 2-2 4-6 3h-6l-6-2-6-7-6-12-4-14-2-15v-29l4-20 5-12 6-8 8-7h16l5 5h3l10-1-1-2-7-2v-1z" fill="#5C4952"/>
<path transform="translate(462,52)" d="m0 0h22l8 1 1 3-1 36 2 1-6 4-11 1 1 19v16l3-1v2h28l17-2 2-1h8v1h-7l1 5h1v17l-2 2-1 3h-16l-14-1v2h8l-2 1v5l3-3v20l-6 3h-11l-48-2-19-1-8 1v2h-17l-14-1h-11l-26 2h-13v-17l3-2 43-4 15-2h6v-2l-3 1-14 1v-18l8-2 39-4 34-4v-20l4-1-1-16h-4v-2h-15l-1-2v-37z" fill="#2B7073"/>
<path transform="translate(485,721)" d="m0 0 11 1 8 2h28l5 6-1 4h-2l1 9-4 44-1 18v2l-2 1-1 21-4 38v5l2 2h-13v26l3 9h2l1 5-13-1-12-3-1-8-3-3v-12l-1-4-7-2-2 3-2-7-4-40v-12l1-2v-6l-1-1-3-42-2-34-1-4 8-4 6-5z" fill="#D7D8D7"/>
<path transform="translate(455,501)" d="m0 0h38v1l-26 1-2 1-1 106v26h19l7-1 2-11-1-22h-2v-2h-8l-4-2-1-4 1-51 1-7h2v19h21v19l-7 1h-14v20h16v2l4 1 1 1 1 29 1 8 2 1 22 1v1h-71l-16-2-1-1-1-16-5-1v10l-3 5-20 1 2 11 1 3 12 2 7 1 1 3 74 1 14 1v1h-41l-1 1-24 1-9 1-2 3 2 9 3 10 5 10 2 5v3l-4-2-6-9-5-8-4-2-2-2-3-1v3h-21v-10h-10l-2-16-2-14v-7l17-1v-18l2-12 2-8 5-37 1-21h2l1-8 5-6 4-11 2-6 6-2z" fill="#9E736C"/>
<path transform="translate(535,741)" d="m0 0 12 2 21 2 5 1 16 1v1h-14l-1 5-3 3-4 14-2 1-1 11-1 26 28-1h25l-3 2-2 1 7 2 1 5-13 2-17 1-5 1 2 1v2h-2v2l-3 3-1 7v20l3 9 9 4 8 2h18l6 2v2h-2v2l4-4-1-3 6 1 3 2v2l-6 2v2h2v14l-25 2-26 1-6-1-2-12-5-2v-1l-11-1-15-2-12-1-5-1-1-8 5-51v-8l3-1-1-2 1-18 4-44z" fill="#A6625C"/>
<path transform="translate(338,972)" d="m0 0 4 1 8 3 7 2 1 2 18 5 8 1h44l20-2 34-2 5-1 29-2h8v-2l7-2h52l4 2-14 4-2 6 9 9-1 6-5 5-2 5-5 5-3 7h-110l-3-3-14-7-13-4-16-8-12-5-12-4-15-4-23-8-7-5z" fill="#B8B2B6"/>
<path transform="translate(424,184)" d="m0 0 4 1-1 11v39l52 1 50 2 93 3 29 1 13 1v31l-2 148v52l2 1 21 1v1h-31l-3-1v-80l2-152h-38l-24-1h-15l-68-2-2-1-71-2-5-1-2 238-1 1-11-1 1-3 1-230-6-1-5-5-1-9v-27l2-7h2v-2l6-3v-2z" fill="#8F6765"/>
<path transform="translate(394,734)" d="m0 0h17v1h-12l1 6v19h17l-2 1v3h-14l1 31 13 1v20l7-1 33-1h18l2 3v6l-5 3-47 3h-9l-1 27-1 13v13l2-2v8h5l1 4 4 1 4 9 1 2 12 1v1l-18 1v19h-21l-10-1v-2l-18 1 5-5h4l1-4 5-10 2-2v-3l-9-4v2h-2v9l-3-4-7-2-1-1v-8l4-4 5 1 1 1v-3l-8-1v2l-5 2v-8h7l21 4-13-3-3-2 2-23 4-36v-6l4-3-2-3v-12h-3v-34l4-1-5-1-1-7v-17h12z" fill="#956765"/>
<path transform="translate(512,873)" d="m0 0h8l15 3h7l16 2 9 1 4 4 2 12h6v1h-7v20l-20 1-8 1 8 3 14 2 5 5 2 3 2 24 2 7 4 3h51l32-1 9 1v2l-9 2-27 2-5 1-26 1-21 2h-40l-15-1v-47l-2-2-32-6-3-3 1-4h11l13 2-1-5h-2l-4-9v-26z" fill="#A6615B"/>
<path transform="translate(572,896)" d="m0 0 4 1 25 1v4l-4 1 5 5 6 2 19 1v3l-1 3-3 3 1 2-8 1h24l32-1 2 1 1 21 1 16 2 1-3 5-2 1v-2h-20l-21 1h-51l-5-4-2-7-2-24-4-5v-2l-20-3-6-2 2-2 8-1h20z" fill="#D6BBAF"/>
<path transform="translate(619,499)" d="m0 0h7l7 3v1h-59l-5 2-4 6-2 9-9 6-5 2-9 3-7 1h-9v-2h-2l-1 2-1 1v20h-17l-1-18h-21l-3 1-1 60 1 2 9 1 2 1v2h2l1 3 1 21-2 7-1 2-7 2h-19l-1-1v-26l1-107 3-1 26-1 103-1z" fill="#C49F97"/>
<path transform="translate(382,715)" d="m0 0h19l4 5 11 2 1 3 2 1 1 7-1 1 3 1-1 15 9-1 36-1 2-4 1 2 3 43 1 25-18 1-40 1-1-19-12-2-1-6v-25h14v-3l-15-1-1-25h-5l-1 3h-11l-3-4 1-17z" fill="#B48882"/>
<path transform="translate(331,669)" d="m0 0 14 1-1 3h-2v43h-4l2 10 1 10h21v2l-15 1-7 1 3 12 1 11h2l1-3v2l13-2h6l-4 2-1 3-13 4h-2l5 13 1 9h2l1-3v2l14-1v3l-5 2h-4v6l4 8 3 7 19-3-4 4-13 6-8 4-7-1-2-3-6 4-3-1-7-17-1-5 5-5 7-2-8-1-7 1h-9l-5-18v-5l4-3 3-1h11v-2l-14 1-7-1-1-1-3-23 3-1-4-1-2-17 1-5 6-1-3-2v-46h17z" fill="#684F57"/>
<path transform="translate(652,245)" d="m0 0h1v83l-2 148 3 1-5-1-1-4v-7l-6-1v-4l2-1 3-9-1-1v-10l2-1h-3v16h-2l-1-4v-10l-8-1v-1l9-1v-36l-3-1h4l-4-4-4-3-2-3h4v-3-18l1-3-3-1-2-11-1-1-11-1-1-1-1-26-2-1-14-1h-26l-4 1 1 59 2 1-1 2-11-1-3-4 1-61 4-4h59l8-6 2-1v-31l-2-2-27-1v-1l13-1-1-4 16-9 8-2v-2l4-2h3v-6z" fill="#E0CFC4"/>
<path transform="translate(581,532)" d="m0 0h1v87l-1 60v27l3 3h44l33-1v-1l52-1-4-2-3-2v-2l-4-1-2-3 3-20v-6l-2-2 1-22 2-3h-2v2h-3v2l-9 5-3-1v-16l13-8 4-4-6-5-9-6-1-1v-15l4-1 12 8 4 3 6-1 1-7h1v7l10 2h7l3-17 3-2h3v8l-1 14-1 2 7 2v1h-7l1 3-3 23 11 3v1l-10 1-1 1v14l-1 8 3-1v2l-2 1 8 2v1l-14 2v2l-16-1h-4l-1 21 13 1 5 1 2-20h5l-1 22h-3l-2 10-1 2-21 1-8-3h-116l-5-5v-65l1-69z" fill="#212A40"/>
<path transform="translate(332,285)" d="m0 0 9 1 10 9 3 5 5 15 3 14 1 12v26l-4 28-3 16-6 15-5 4-3 2-11 2-5-1-5-6-4-4-3-5-5-1v-1l21-2 1-1h-8l-8-2 7-11 6-15 2-7h2v-10l2-3 1-7 2-3 2-8 5-3h4v-6l-6-1-5-6-3-3-4-10-1-4h-2l-9-19 1-3 10-1-1-2-7-2v-1z" fill="#414C54"/>
<path transform="translate(428,479)" d="m0 0h19l-2 1 1 13 2 2h14l3-2-1-14h94l-3 1-1 4-8 1-4 2v2l-4 3-12 3h-3v2l37 1v1l-8 1-32 1-65 1-16 3-2 7-5 12-4 2-2 10h-2v11l-4 25-3 13-2 4-3 1-5-6-9 1 1-5 2-6 4-9 4-21v-17l-2-10-5-9-7-4-11-2-20 1-1-4 6-3h28l9 3 25 1v-2l-4-1 3-1z" fill="#3D3547"/>
<path transform="translate(494,574)" d="m0 0h6l2 2 1-1h17v19h20v-19h18v18h5v22l-1 24h-35l-22-1-3-2-1-13-1-24-4-2v-2h-16v-20z" fill="#694F57"/>
<path transform="translate(472,824)" d="m0 0 2 1v12l4 40 1 5 3-2-1 6-4 1-24 1h-39l-1-6-2 2v-15l2-34 1-6 39-3 17-1z" fill="#C49E96"/>
<path transform="translate(468,320)" d="m0 0h41l4 3 1 24 1 2 10 1 3 2v30l-4 3h-53l-5-3-1-2v-56z" fill="#29345A"/>
<path transform="translate(430,237)" d="m0 0 76 2 2 1 68 2h23l16 1 38 1-2 2-7 2h-178l-29 1v2h-2l-1 13-1 176v30l1-14h1v14l3-1 1 2 34 1 2-8h1l1 10 2-2 49 1h27l89 1 4 4-4 2h-78v17h-1l-1-18-36-1-53-1-1-1h-33l-12-1-1-2v-122l1-103z" fill="#BF9A93"/>
<path transform="translate(578,322)" d="m0 0h26l14 1 3 2 1 26 11 1 2 2v29l-4 3h-52l-5-3v-59z" fill="#29345A"/>
<path transform="translate(338,972)" d="m0 0 4 1 8 3 7 2 1 2 18 5 8 1h44l20-2 34-2 5-1 29-2h8v-2l7-2h52l4 2-40 4-3 2 6 4 1 3-4 5-8 4-16 4-11 1h-22l-16-1h-9l-14-2h-10l-17-2-30-6-9-3-25-4-14-5-7-5z" fill="#B6A5A8"/>
<path transform="translate(360,939)" d="m0 0h5l3 2v2h11l6 4 7 4 10 4 3 5 2 6 4 3 2-2v12l3 1h67l25-2 15-1v2l-19 2-17 1-5 1-34 2-20 2h-44l-10-2-16-4-1-3h-6l-2-2-7-2-5-2-1-3 4-2-1-2v-17l4-7 4 2 5-2 6-1z" fill="#A76B67"/>
<path transform="translate(332,619)" d="m0 0h17l47 1 1 3 1 17 3 26v4h10v10h21v-3l5 1 3 2 8 11 5 8 3 6 10 7 6 4-2 2h-20l-12-5-6-3-5-5-7-8-3-3-1 8-2 7v3l5 1v2l-22 1h-14l-1 5h-1l-1 13-2-4-1-15h-12v-1l14-1 29-1 3-3-2-9-2-5h-2l-5-11-1-3-7-4-5-3v-2h-41v-2l22-1 7-1 3-1-1-3 2-7 6-5 3-3-1-12 1-9v-1l-44-1-16-2 1-4z" fill="#7B5051"/>
<path transform="translate(481,534)" d="m0 0h21l1 1v18h17v-19h3v2l7-2h10l1 3v16h17v-18h5v58l-5 1-1-2 1-17h-18v19h-20v-19l-17 1-1 14h-1l-1-16 1-19h-21v-20z" fill="#251E26"/>
<path transform="translate(454,272)" d="m0 0h39l35 1 3 2v29l-1 3-2 1h-71l-5-4v-30z" fill="#29335A"/>
<path transform="translate(394,734)" d="m0 0h17v1h-12l1 6v19h17l-2 1v3h-14l1 31 13 1v20l7-1 33-1h18l2 3v6l-5 3-30 2h-27l-16-3-7-1v-3l-5-1v-5l3-2-2-3v-12h-3v-34l4-1-5-1-1-7v-17h12z" fill="#72595F"/>
<path transform="translate(563,275)" d="m0 0h71l3 3v31l-3 2h-67v-2l-4-1v-2h-2v-29z" fill="#293359"/>
<path transform="translate(328,624)" d="m0 0 16 1 46 1-2 14 1 9-2 3h-2l-1 2-5 5-1 8-3 2-7 1h-22l-1 2v-2h-14l-2 1h-6l-1-6 5-36z" fill="#966967"/>
<path transform="translate(402,161)" d="m0 0h2v5l2-1v16h15l5-5 6-8h2v-2l9-3-3-2h13l2 4 2 3 1 14h8l7-4 9-10 6-4 10-1 5 3 1 7v11l-3 2h-11l-48-2-19-1-8 1v2h-17l-14-1h-11l-26 2h-13v-17l3-2 43-4z" fill="#2A6369"/>
<path transform="translate(481,882)" d="m0 0h7l2 6v13l3 1 1 6-1 2 7 1v1h-6l1 6h-2l1 4-5 1-23 2-18 1h-24l-1-1v-18l6-2-4-7-2-5-3-1v-2l-2-1 1-1 62-2z" fill="#B6A7AA"/>
<path transform="translate(572,820)" d="m0 0h9l5 2v2h-2v2l-3 3-1 7v20l3 9 9 4 8 2h18l6 2v2h-2v2l4-4-1-3 6 1 3 2v2l-6 2v2h2v14l-25 2-26 1-6-1-2-12-5-2v-1l-5-1v-1l11-1h-11v-37l1-16 1-3z" fill="#C59F97"/>
<path transform="translate(448,502)" d="m0 0h5l-2 3-9 2-2 5-2 15-4 11-6 8-3 15-4 36-2 13-1 7 3 1h16l-4 1v10l-3 5-20 1 2 11 1 3 12 2 7 1 1 3 74 1 14 1v1h-41l-1 1-24 1-9 1-2 3 2 9 3 10 5 10 2 5v3l-4-2-6-9-5-8-4-2-2-2-3-1v3h-21v-10h-10l-2-16-2-14v-7l17-1v-18l2-12 2-8 5-37 1-21h2l1-8 5-6 4-11 2-6 6-2z" fill="#905D5D"/>
<path transform="translate(310,739)" d="m0 0h18l-3 2h-8v2h8l2 20h2v2l5 1-1-17 4-6 4-1 3 15v6h2l1-3v2l13-2h6l-4 2-1 3-13 4h-2l5 13 1 9h2l1-3v2l14-1v3l-5 2h-4v6l4 8 3 7 19-3-4 4-13 6-8 4-7-1-2-3-6 4-3-1-7-17-1-5 5-5 7-2-8-1-7 1h-9l-5-18v-5l4-3 3-1h11v-2l-14 1-7-1-1-1-3-23 3-1-4-1z" fill="#695158"/>
<path transform="translate(527,816)" d="m0 0 17 1 11 2h34v1l-26 1-1 19v36h20v1l-27 2-15-2-12-1-5-1-1-8z" fill="#A6625C"/>
<path transform="translate(468,748)" d="m0 0h1l2 26 2 31v9l-18 1-40 1v-14h2l2-6 6-2 1-20 2-12 3-7 5-1 6 4 8 15 7 9v2l3 1v2l6 2 3 6-1-19-1-13v-14z" fill="#C49E96"/>
<path transform="translate(417,693)" d="m0 0 4 4 7 8 4 3v2l6 2 12 5h20l1-2 9 3 4 2-1 5-5 6-9 5h-2l2 4v6l-3 3-45 1v-13l1-2-4-1 1-3-1-3 1-2-5-2-1-2-8-1-4-5v-1h18v-2l-5-1-1-5 2-5 1-8z" fill="#A5615B"/>
<path transform="translate(589,747)" d="m0 0h61v1l-41 1v7l-4 5-4 10-6 16-2 6v8l4 2 3 1h13l6 3 1 2v7l-3-4-7-1 3-3h-50v-26l1-12h2l4-14 2-3h2l1-5z" fill="#C49F97"/>
<path transform="translate(433,619)" d="m0 0h5l1 1 1 16 16 2 106 1v15h-44l-8-1h-16l-13-2-9-3-5-4-1-2-7 1-10 4-7 3-2 2 23 3v1h-16l-14-1-1-2-10-2-9-1-3-9-1-7 21-1 2-4v-8z" fill="#484C54"/>
<path transform="translate(562,922)" d="m0 0h7l3 3 12 2 20 1 9 4v9l8 2 6 9 5 3 23 5h14l6 2-1 5-1-2h-20l-21 1h-51l-5-4-2-7-2-24-4-5v-2l-6-1z" fill="#C49F97"/>
<path transform="translate(478,536)" d="m0 0h2v19h21v19l-7 1h-14v20h16v2l4 1 1 1 1 29 1 8 2 1 22 1v1h-71l-16-2-1-1v-14l2 4 4-2-1-7-2-5-1-4 4-6 3-2 8 1v-8l3-1 1 1 1 7 1-18 1-38h1v92h19l7-1 2-11-1-22h-2v-2h-8l-4-2-1-4 1-51z" fill="#AC7772"/>
<path transform="translate(616,817)" d="m0 0h1l3 24 3 27v5l-7-1h-18l-11-4-6-4-2-8v-20l2-9 3-1v-2h2v-2l-5-1v-1z" fill="#D5BAAE"/>
<path transform="translate(419,236)" d="m0 0h10l-1 17-1 97v123l-7 1-4 1 1-3z" fill="#39282C"/>
<path transform="translate(375,715)" d="m0 0h2l1 2 2 18 3 2-1 1v24l7 1v1h-6v34h3l1 12 2 4-4 1-1-2-18 3-6-15-1-5 1-2 9-2v-3l-9 2-5-1-3 1-6-22 8-3 7-2 3-3 3-1-3-19v-5l10-1z" fill="#D5D7D6"/>
<path transform="translate(337,579)" d="m0 0 19 1 1 1 7 1-3 3 10 2 8 1 4 4 1 3v14l-3 8-5 1v2h-45l-1-2 1-13 5-25z" fill="#9E736C"/>
<path transform="translate(378,509)" d="m0 0h7l13 9 2 4v11l-5 17-6 11-6 7-6 4-3 4h-3l-2-5-2-1-1 4-3-1-1-3v-23l2-12 4-14 5-9z" fill="#987E7D"/>
<path transform="translate(366,882)" d="m0 0h7l21 4 25 2 1 4 4 1 4 9 1 2 12 1v1l-18 1v19h-21l-10-1v-2l-18 1 5-5h4l1-4 5-10 2-2v-3l-9-4v2h-2v9l-3-4-7-2-1-1v-8l4-4 5 1 1 1v-3l-8-1v2l-5 2z" fill="#49626A"/>
<path transform="translate(379,506)" d="m0 0 9 1 10 7v2l4 2v17l-4 16-6 15-4 6-5 6-2 2-13-1-10-3-20-2-1 2-1-3-3-1-1-2v-10l5-25 5-16 2 4-1 8-1 4 1 5 1 4 5-1 2-4 3-8 2-4h2l1-3h2l2-5 5-5h2l2-4zm-1 3-5 3-6 12-4 14-1 12v20l2 4 3-1v-3l3 3 1 3 4-1 15-15 6-13 4-14v-11l-3-5-12-8z" fill="#5E4B53"/>
<path transform="translate(428,473)" d="m0 0 1 2h46v2h62l93 1v1l-65 1v17h57l7-3h14l3 1v2l-4 2-1 2-12 1-3-2-30 1h-76v-1l32-1-24-1-5-1v-2l15-4 4-2v-2l7-4h5l1-3h-90l1 13-4 3h-14l-3-3v-13h-16l1 16-3 2h-5l-1-1-1-19-6-1 4-3 9 1z" fill="#7A6262"/>
<path transform="translate(619,499)" d="m0 0h7l7 3v1h-59l-5 2-1 2-4 1-31 1-16 3-11 7-8 7-3 3-11 2h-5l-2 3-3 3-3-9v-12l-2-8-2-1v-5l26-1 103-1z" fill="#D5BBAF"/>
<path transform="translate(654,244)" d="m0 0h7l-2 176-1 52-1 4h-6v-80l2-124z" fill="#352931"/>
<path transform="translate(559,656)" d="m0 0h3v37h-1l-1-32-4 1v2l-8 2-3 7-8 6h-7l-6-4-10-3-9-1-8-4-5-1-1-1-16-1-7 2-1 1-8 1-4 3v9l2 9 7 13v5l4 2-3 1-1 2-9-7-2-4h3l-4-10-4-8-4-15-1-4 3-4 9-1 24-1 1-1h41z" fill="#8F5C5C"/>
<path transform="translate(494,574)" d="m0 0h6l2 2 1-1h17v20h-20l-2-1v2l5 1 8 1 6 4 4 15v8l7 8 4 2 8 1-3 3-32-1-3-2-1-13-1-24-4-2v-2h-16v-20z" fill="#8F5D5D"/>
<path transform="translate(517,874)" d="m0 0 11 1 14 1 16 2 9 1 4 4 2 12h6v1h-7v20h-26l-22-1-3-2 2-3 8-3 3-3 1-3v-15l-5 2-3-2v8h-1l-3-9-3-2 1-4 6 1-3-3h-7z" fill="#3F4B53"/>
<path transform="translate(458,314)" d="m0 0h65l4 1 2 5v24l-1 7-13-1-2-3-1-24-3-2h-41l-2 3v56l2 4h-12l-2-3v-63z" fill="#D6D7D6"/>
<path transform="translate(423,547)" d="m0 0h1v10l-5 37-4 20v16l-3 3h-15l-1-13h-20v-2l5-1 2-8v-14l-3-5-1-1-15-2-4-2 1-2 9-1 18 2 4 1 9 1v-2l6-1 5 6h3l4-17 2-10z" fill="#835150"/>
<path transform="translate(662,568)" d="m0 0h11l2 2-2 10-12 36-16 50-3 7-2 1h-10l-1-1v-7l5-15 4-14 14-41 6-19z" fill="#59A7AF"/>
<path transform="translate(566,316)" d="m0 0h23l43 1 3 6v21l-1 8h-12l-1-1-1-26-2-1-14-1h-26l-4 1 1 59 2 1-1 2-11-1-3-4 1-61z" fill="#D2D4D3"/>
<path transform="translate(560,675)" d="m0 0h1v59l-24-2-5-7h-28l-8-2-11-2-1 2-1-5 3-1h14l3-2h9l3 1 10-2 9-1 4-10 5-7h2l2-4 4-4h2v-2l3-2-2-4 5-3z" fill="#AD7772"/>
<path transform="translate(297,318)" d="m0 0 7 1 4 4 4 9 2 12v17l-1 1-1 7-3 8h-2l-2 4-1 1h-6l-8-7-2-5-2-9v-21l4-13 6-8z" fill="#171723"/>
<path transform="translate(689,595)" d="m0 0 4 1 11 7 4 3v2l4 1 6 4 19 4v2h-3l-1 19h-12l-8-1-5 5-6 1v2h-3v2l-9 5-3-1v-16l13-8 4-4-6-5-9-6-1-1v-15z" fill="#264A59"/>
<path transform="translate(608,399)" d="m0 0h2v18h17v-17h1v17h16v20h-16v18h14l-2 2h-33l-1-1-1-8v-33l1-13z" fill="#755B5E"/>
<path transform="translate(493,918)" d="m0 0 15 2 20 4 3 3v37l-1 7-2-2-2-10-1-23-6-2h-19l-56 2h-14l-6-2-2-3 1-4 1-1 42-2 27-2z" fill="#D5BAAE"/>
<path transform="translate(560,658)" d="m0 0h1v17l-5 5-13 7-3 1v2h-8l-8-5-13-4-12-5-6-2-16-2-16 3 2 15 6 15 2 7 2 2-4 1-5-5 3-1-4-4-1-4-6-12-2-9v-9l5-4 8-1 3-2 5-1 16 1 3 2 5 1 9 4 9 1 8 3 5 3h7l8-6 3-7 8-1v-2l4-1z" fill="#956765"/>
<path transform="translate(369,496)" d="m0 0h28l9 3 28 1v1l-7 1-4 2h-3l2 16v17l-2 18-3 9-3 4-3 1-9 15-4 1 1-5 2-6 4-9 4-21v-17l-2-10-5-9-7-4-11-2-20 1-1-4z" fill="#39282C"/>
<path transform="translate(516,423)" d="m0 0h60l1 1v17l-3 2h-55l-5-2v-17z" fill="#2C3457"/>
<path transform="translate(354,304)" d="m0 0 2 1 4 14 2 10 1 12v26l-4 28-3 16-6 15-5 4-3 2-11 2-5-1-5-6-4-4-3-5-5-1v-1l25-2 4-3 7-3 7-10 5-12 2-8v-11l-1-4 1-22-3-10-6-9-4-5-2-2 2-5 4-3 5 3z" fill="#254656"/>
<path transform="translate(540,915)" d="m0 0 12 1-4 2h-4l8 3 14 2 5 5 2 3 2 24 2 7 4 3h51l32-1 9 1-1 2-21 1-24 2-19 1h-39l-4-2-1-4-3-1-2-15v-7l-3-8-4-7-3-1v-2l-4-1-1-2-20-4v-1z" fill="#A66C68"/>
<path transform="translate(424,184)" d="m0 0 4 1-1 11v39l3 1h-11v125h-1v-119l-6-1-5-5-1-9v-27l2-7h2v-2l6-3v-2z" fill="#28666B"/>
<path transform="translate(349,671)" d="m0 0h35l3 1 1 2 7 4 6 4 1 5 3 6v2h2l3 5 2 10-4 3-31 1v-2h5l-5-15-3-14-1-10-24-1z" fill="#776161"/>
<path transform="translate(467,52)" d="m0 0h17l8 1 1 3-1 36 2 1-2 1-23-1-3-1-1-11v-24l-1 34h-1v-37z" fill="#5AA7AF"/>
<path transform="translate(371,186)" d="m0 0h12l1 11v167l-1 108 34 1-1 3-2 1h-32l1-3h-3v-286l-9-1z" fill="#3A7E87"/>
<path transform="translate(481,882)" d="m0 0 7 4v9h-1l-1-7-1 1v13l2 1-3 1-31 2h-12l-12-1-4-7-2-5-3-1v-2l-2-1 1-1 62-2z" fill="#5BA6AE"/>
<path transform="translate(434,239)" d="m0 0 1 2 3-1h17l85 2 62 2 49 1-3 2-4 1h-178l-29 1v2h-2l-1 13h-1v-23z" fill="#C49F97"/>
<path transform="translate(440,161)" d="m0 0h13l2 4 2 3 1 14h8l7-4 9-10 6-4 10-1 5 3 1 7v11l-3 2h-11l-48-2-16-2 5-5 7-11 7-1v-2l-5-1z" fill="#29646A"/>
<path transform="translate(625,870)" d="m0 0 6 1 3 2v2l-6 2v2h2v14l-25 2-26 1-6-1-2-12-5-2 1-2 41-2 16-1 2-3z" fill="#5DA7AF"/>
<path transform="translate(321,715)" d="m0 0h21l-4 1 2 10 1 10h21v2l-15 1-7 1-1 4-1-1-4 6v17h-6l1-3h-2l-2-11v-9h-8v-2l8-1h-14l-2-4-1-16 7-2h6z" fill="#6A5058"/>
<path transform="translate(430,237)" d="m0 0 76 2 2 1 68 2h23l16 1 38 1v1h-51l-62-2-85-2h-21l-1 159-3 2-1-1v-153z" fill="#BF9A93"/>
<path transform="translate(462,52)" d="m0 0h5l-3 2 1 2 1 4v32l26 1v2l-4 2-12 1-2 1v34l-3-1v-17l-1-1-1 18-2 1-2-1v-18l4-1-1-16h-4v-2h-15l-1-2v-37z" fill="#2D7073"/>
<path transform="translate(716,676)" d="m0 0 12 1 16 1v1l-7 1 1 5 1-4h8l12 2v9l-2 12-1 1-19-1-5-1 3-1v-13l1-9h-5v11l-1 9-2 1-14-2-3-1v-16l1-5z" fill="#ABA3A4"/>
<path transform="translate(386,814)" d="m0 0h12l11 2h31l12-1 3-1h18l2 3v6l-5 3-30 2h-27l-16-3-7-1v-3l-5-1v-5z" fill="#453A48"/>
<path transform="translate(413,681)" d="m0 0h21l9 12 10 10 13 9 6 4-2 2h-20l-12-5-6-3-5-5-7-8-7-14z" fill="#181822"/>
<path transform="translate(617,595)" d="m0 0 4 1v15l-9 7h-3v2l-4 3 1 3 11 7 3 3v15l-5-1-13-9-9-7-1-1v-21l21-14z" fill="#59A6AE"/>
<path transform="translate(478,536)" d="m0 0h2v19h21v19l-7 1h-14v20h16v2l4 1 1 1 1 29 1 8 2 2h-15v-1h5v-35l-1-3h-9l-4 1-4-2-1-4 1-51z" fill="#9C6E69"/>
<path transform="translate(481,534)" d="m0 0h21l1 1v18h17v20l-1 1h-17l-1-4v-15h-21v-20z" fill="#4B636A"/>
<path transform="translate(431,498)" d="m0 0 17 1 72 1v1l-65 1-16 3-2 7-5 12-4 2-2 10h-2v11l-4 25-3 13-2 4-3 1-5-6h-5l2-5 7-11 3-1 3-5 3-14 1-11v-17l-1-16 6-2v-1l5-1z" fill="#5F4A53"/>
<path transform="translate(378,669)" d="m0 0h23l10 1v10h21v-3l5 1 3 2 8 11 5 8 1 5-7-6-7-7-6-9-21-1 5 12-1 1-1 8-2 7v3l5 1v2l-22 1h-14l-1 5h-1l-1 13-2-4-1-15h-12v-1l14-1 29-1 3-3-2-9-2-5h-2l-5-11-1-3-7-4-5-3v-2l-16-1v-1z" fill="#604951"/>
<path transform="translate(557,639)" d="m0 0h5v15h-44l-18-2-2-9-1-2 7-1z" fill="#244556"/>
<path transform="translate(397,633)" d="m0 0h10l1 11 1 5 5 2 10 1 3 14 5 12v2h-21v-10h-10l-2-16-2-14z" fill="#D5D6D5"/>
<path transform="translate(348,626)" d="m0 0h25l-2 1-2 10-1 11h-2l1 7-3 6-1 5-4 2h-12v-12l-1 10h-1v-15l2-21z" fill="#B48882"/>
<path transform="translate(581,532)" d="m0 0h1v87l-1 60v27l3 3h44l90-1v-2h2l1-4h6l-4-1 1-2 5 1 2-20h5l-1 22h-3l-2 10-1 2-21 1-8-3h-116l-5-5v-65l1-69z" fill="#34717B"/>
<path transform="translate(419,236)" d="m0 0 4 1v82l-1 119-1 26-2 5h-1v-108z" fill="#161824"/>
<path transform="translate(357,361)" d="m0 0 2 2 1 5v10l-5 16-6 10-5 6-7 1-9-3-3-3 8-14 8-13 5-2 3-1 2-4 2-3h2l1-4z" fill="#3C3548"/>
<path transform="translate(494,574)" d="m0 0h6l2 2 1-1h17v20h-22l-2 1-16-1v-20z" fill="#5A4A53"/>
<path transform="translate(528,131)" d="m0 0h8v1h-7l1 5h1v17l-2 2-1 3h-31l-1 1h-6l3-7 5-5 6-8v-3l-6-1v-1l28-3z" fill="#286369"/>
<path transform="translate(379,506)" d="m0 0 9 1 10 7v2l4 2v17l-4 16-6 15-4 6-5 6-2 2-13-1-10-3-20-2-1 2-1-3-3-1-1-2v-10h1l1 7 1 2 3-1 14 3 7 3 2-1-3-3v-26l2-10 4-8 1-6 3-6h2l2-4zm-1 3-5 3-6 12-4 14-1 12v20l2 4 3-1v-3l3 3 1 3 4-1 15-15 6-13 4-14v-11l-3-5-12-8z" fill="#776061"/>
<path transform="translate(384,816)" d="m0 0 1 4 5 1v3h3v9l4 15v17l-4 10-2 2-9 2-1 2h-3l2-23 4-36z" fill="#A56C68"/>
<path transform="translate(609,749)" d="m0 0 2 3 3 32 2 16v5h-20l-4-6v-6l3-10 3-8 7-16 3-3z" fill="#D6BBAF"/>
<path transform="translate(341,965)" d="m0 0 19 4 27 4 8 2v2l11 1 4 3v2l42-1 46-3 18-2h7v2l-19 2-17 1-5 1-34 2-14 1h-32l-18-4-17-4-9-1v-2l-13-1-6-4 4-1z" fill="#8A5A5B"/>
<path transform="translate(662,243)" d="m0 0h2v31l-2 148v52l2 1 21 1v1h-31l3-1 1-56 1-101 1-12 1-46z" fill="#3D7E87"/>
<path transform="translate(358,795)" d="m0 0 2 1 1 5 5 13 1 1 19-3-4 4-13 6-8 4-7-1-2-3-6 4-3-1-7-17-1-5 6-6h5v3l3 5 5-6h2v-2h2z" fill="#6F565C"/>
<path transform="translate(429,652)" d="m0 0 4 1v2l74 1 14 1v1h-41l-1 1-24 1-9 1-2 3 2 9 3 10 5 10 2 5v3l-4-2-6-9-5-8-4-2-2-2h-4l-5-12v-10-3z" fill="#845251"/>
<path transform="translate(476,97)" d="m0 0 3 1h-2l1 19v16l3-1v2h19l4 2 1 2-10 4-3 1v2l-8 6-5 5-7 1-1-1-1-16-1 18h-1l-1-23-2-1v-2h3l1-18 2-1 1 3v16h1v-33z" fill="#5DA7AF"/>
<path transform="translate(393,503)" d="m0 0 5 2 6 4 4 8 2 10v17l-2 12-4 15-3 5-3 9 3 1h-12l-1-1-31-3-1-1-19-2 1-5h11l12 2 7 2 10 2 6 2h7l6-12 4-11 2-7 1-16 1-5-3-16-1-3-5-2-4-3-6-2v-1z" fill="#4B3E48"/>
<path transform="translate(498,594)" d="m0 0 18 1 13 2 4 4 1 6 1 2 1 15 6 3v5l9 3v1h-19l-6-4-6-8v-7l-3-13v-2l-5-2-1-1-8-1-5-2z" fill="#835150"/>
<path transform="translate(367,672)" d="m0 0h8l-2 1 2 10 3 14 4 13v2l-18 2h-15v-1l10-1 1-1v-37z" fill="#AAA2A3"/>
<path transform="translate(332,285)" d="m0 0 9 1 10 9 3 5 1 10-5-2-4 2-2 4-7-1-10-5-3-3-2-1-4-9 1-3 10-1-1-2-7-2v-1z" fill="#3D3648"/>
<path transform="translate(639,905)" d="m0 0 2 3 11 1 24 5v3h-2l2 3v32h-1l-1-8-1-20-1-2-32 2h-26l2-2 6-1-2-3 6-2 2-4h6v2h2l-1 4 4-1z" fill="#E1CEC3"/>
<path transform="translate(382,715)" d="m0 0h19l4 5 11 2 1 3 2 1 1 7-2 2h-24l-1 3h-11l-3-4 1-17z" fill="#9A8180"/>
<path transform="translate(453,502)" d="m0 0 2 1-3 3-7 1-2 18-6 22-1 1-2 16-2 9-2 6-1 11-5 2-1 6-2 10-1 8-2 1v-10l2-10 4-36 3-15 4-5 4-7 2-7 2-15 2-5 3-2 7-1z" fill="#956765"/>
<path transform="translate(429,187)" d="m0 0h1v45l192 7 30 2 4 2-157-5-20-1-49-1-3-1-1-12v-32l2 1z" fill="#5E7C86"/>
<path transform="translate(427,590)" d="m0 0 4 2 1 3 3 1h3l8-1 1-4h4l1 1v7l-8 5-2 5 2 7 2 4v5l-6 2-2-7-1-1h-17l-1-3 2-15 3-9z" fill="#A76C68"/>
<path transform="translate(558,535)" d="m0 0h5v58l-5 1-1-2 1-17h-17v-20l12-1 5-1z" fill="#22283E"/>
<path transform="translate(345,672)" d="m0 0h22v1l-6 1v37l-2 2-14 1z" fill="#B9B3B7"/>
<path transform="translate(401,789)" d="m0 0h1v6l13 1v20l7-1h30v1l-12 1h-31l-20-3-3-4v-12h-3l1-4 16 1z" fill="#8F6564"/>
<path transform="translate(383,514)" d="m0 0h2l1 3 9 2 3 4v7l-6 18-4 6-4 1-9-2v-8l4-20 1-7z" fill="#AAA2A3"/>
<path transform="translate(417,693)" d="m0 0 4 4 7 8 4 3v2l6 2 12 5h20l1-2 5 2 1 2-2 1-1 5-7 4-9-2-10-2-7-5-7-4-1-1h-6l-3 17-2-1-1-16h-2v-2l-5-1-1-5 2-5 1-8z" fill="#8F5C5C"/>
<path transform="translate(355,584)" d="m0 0 3 1v4l11 3 4 2 2 5-1 13-2 5-6 2h-16v-9l4-24z" fill="#B38882"/>
<path transform="translate(428,479)" d="m0 0h19l-2 1 1 13 2 2 5 1h21l2-4 2-5h4l3 5v2h3l1 2 6 1 28 2v1h-75l-21-2 1-2h2z" fill="#3A282C"/>
<path transform="translate(366,882)" d="m0 0h7l15 3 5 8 1 6 1 12 2 1 1 8 2 1 2 3h-28l5-5h4l1-4 5-10 2-2v-3l-9-4v2h-2v9l-3-4-7-2-1-1v-8l4-4 5 1 1 1v-3l-8-1v2l-5 2z" fill="#464F57"/>
<path transform="translate(310,739)" d="m0 0h18l-3 2h-8v2h8l2 20h2v2l5 1-1-17 4-6 4-1 3 15v6h2l1-3v2l13-2h6l-2 2-21 4-7 2h-14l-7-1-1-1-3-23 3-1-4-1z" fill="#695057"/>
<path transform="translate(437,637)" d="m0 0 5 1 115 1v1l-53 1-5 1 1 10-6 1-13-2-9-3-5-4-1-2-7 1-10 4-9 3-3-5z" fill="#494852"/>
<path transform="translate(563,318)" d="m0 0 2 1-1 1-1 61 2 3 14 1 51 1-4 3-3 1-39 1-22-1-4-3v-44l1-21z" fill="#C59F97"/>
<path transform="translate(563,514)" d="m0 0h1v20h-6v19h-17l-1-19-17 2v-2l-5-1 2-1 1-2h3v2l17-2 8-3 10-5 3-2z" fill="#A0726C"/>
<path transform="translate(321,308)" d="m0 0 3 4 3 6 3 4 3 11v35l-4 9-2 4-6 15-6 11-2 4-3 2 5 1v1l-16 1-6-3 2-2 1 1 9-1 9-8 5-10 5-21 1-8v-32l-3-16-1-1z" fill="#ADA0A2"/>
<path transform="translate(536,806)" d="m0 0 24 3 19 1v1l-6 2 27 1 4 2v2l-8 1-28 1h-13l-27-4-1-8 9-1z" fill="#39282C"/>
<path transform="translate(517,874)" d="m0 0 11 1 7 1 1 4h2l3 5 2 6 1 5h2l3 8v6h2l1 2 16 2v-11h1v12h-22l-7-2-9 1h-10l2-4 8-3 3-3 1-3v-15l-5 2-3-2v8h-1l-3-9-3-2 1-4 6 1-3-3h-7z" fill="#3D3648"/>
<path transform="translate(557,593)" d="m0 0h6v22l-1 22-6-2v-2h-4l-2-6-2-1-2-10 1-8v-11l-5-1v-1l12-1z" fill="#5C4952"/>
<path transform="translate(583,528)" d="m0 0h3l-2 144v35l36 1v1h-38l-2-3v-27l1-60 1-90z" fill="#1F2941"/>
<path transform="translate(441,159)" d="m0 0h16l23 1 13 2-1 2-7 3-7 6-6 7-6 3h-8l-1-1-1-14-1 5h-1l-1-12h-13z" fill="#5CA9B0"/>
<path transform="translate(424,236)" d="m0 0h5l-1 17-1 97v123l-7 1-4 1 1-3 5-3 1-8 1-77v-32l1-94 1-8v-12z" fill="#4C3E48"/>
<path transform="translate(401,160)" d="m0 0 39 1 4 2-7 3h-3v2h-2l-2 5-3 3-2 4-4 2h-13l-2-1-1-15-1 9h-1v-12l1-2-3 1z" fill="#5AA8B0"/>
<path transform="translate(349,671)" d="m0 0h29l3 2 3 11 3 9 5 6 9 5 4 4v3l-3 1-25 2v-2h5l-5-15-3-14-1-10-24-1z" fill="#997F7D"/>
<path transform="translate(402,161)" d="m0 0h2v5l2-1v16h15l5-5 6-8h2v-2l9-3 5-1-3 1v2l-7 2-6 10-2 4-11 3h-4v2h-17v-1l5-1-2-16-7-1-15 1-3 2-11 2h-8l-6 3h-10l-5-1-1-5 2-1 43-4z" fill="#357276"/>
<path transform="translate(553,479)" d="m0 0h5l-3 1-1 4-8 1-4 2v2l-4 3-12 3h-3v2l37 1v1l-8 1h-29l-15-2-5-1 3-5 5-6 6-3h13l4-2z" fill="#424951"/>
<path transform="translate(365,883)" d="m0 0h1l1 6 4-1v-2h8l1 5-4-2h-5l-1 3v8l7 2 2 1 1-5h2v-2l4 1 6 3-1 4-3 5-5 10-7 3-1 1h17v1l-17 2-4-3v-2l-3-1-3-8z" fill="#766162"/>
<path transform="translate(415,763)" d="m0 0 5 1-2 31-9 1-7-1-1-6v-25z" fill="#ACA3A4"/>
<path transform="translate(461,641)" d="m0 0h5l4 5 3 2 8 2 16 3 6 1 35 1h24l-3 2h-52l-44-1-23-3v-3l5-3 13-4z" fill="#286268"/>
<path transform="translate(452,737)" d="m0 0h14l3 3v6l-3 3-45 1v-12z" fill="#3D2C32"/>
<path transform="translate(740,615)" d="m0 0 4 1-1 1 11 2-4 1-9-1 3 1 19 3-2 18-1 3-2 1h-9l-11-3-1-2z" fill="#ABA3A4"/>
<path transform="translate(572,896)" d="m0 0 4 1 25 1v4l-4 1 5 5 6 2 19 1v1l-36 3-19 1z" fill="#B8B2B5"/>
<path transform="translate(739,645)" d="m0 0 6 1 3 2h-7v1l9 1 11 1v9l-2 13-8 1v1h-10v-2l-4-2 3-1-3-1 1-22-2-1z" fill="#ABA3A4"/>
<path transform="translate(328,624)" d="m0 0 16 1 4 1-1 18v3h1v18l-2 4h-2l-2-10-3-6-1-6-4-2 1-5h-2v2l-2 1 1 2-7 1 2-17z" fill="#9D726C"/>
<path transform="translate(399,735)" d="m0 0h23l-1 24-21 1z" fill="#ABA3A4"/>
<path transform="translate(422,478)" d="m0 0h75v1l-32 1 1 13-4 3h-14l-3-3v-13h-16l1 16-3 2-4-1 1-5-2-8z" fill="#624B54"/>
<path transform="translate(739,588)" d="m0 0h3v8l-1 14-1 2 7 2v1h-7l1 3-3 22-4 1v-2l-6 1-4-1v-2l9 1v-12l1-7h3v-2l-10-1-9-2-7-5-3-2 6-2 1-7h1v7l10 2h7l3-17z" fill="#232B3E"/>
<path transform="translate(519,878)" d="m0 0 4 1-2 1v3l4 3 1 3 1-3 4 1 4-1 1 2v13l-3 5-6 4h-4l-2 4-2-1-1-7 1-2-3-1-3-5v-12l3-6z" fill="#766061"/>
<path transform="translate(744,589)" d="m0 0 13 2 8 2-2 18-2 4h-14l-8-3 1-2v-7h2z" fill="#A9A0A1"/>
<path transform="translate(375,626)" d="m0 0h15l-2 14 1 9-2 3h-2l-1 2-5 5-1 8-3 2-14 1 1-2 8-1 2-3 1-5 1-31z" fill="#905D5D"/>
<path transform="translate(415,934)" d="m0 0 2 3 5 2 1 8 3 9 3 14 3 3 7 2h17l43-2 11-1h16v2l2 1h-23l-52 3h-26l-6-2-2-4-2-18-1-2 1-8-2-5z" fill="#B48882"/>
<path transform="translate(451,273)" d="m0 0 2 1v30l4 3 69 1-3 1v2l-4 2h-39l-3 1-23-1-3-2v-2h-2l-1-2v-31z" fill="#BF9891"/>
<path transform="translate(530,964)" d="m0 0 12 3 16 3 3 1h28l38-2 24-2 21-1-2 2-19 2-14 1-5 1-26 1-21 2h-40l-15-1z" fill="#4B363C"/>
<path transform="translate(453,317)" d="m0 0h1l1 64 1 3 13-1 2 1 52 1-3 3h-44l-22-1-4-3v-65z" fill="#A88985"/>
<path transform="translate(540,876)" d="m0 0 27 3 4 4 2 12h6v1h-7v18h-2v-18l-2 1-2 13-2-4-1-4-2-1-2 5-2-1-1-17h-4l-1-8h-7l-3-1h-5l-1-2z" fill="#4E636A"/>
<path transform="translate(386,505)" d="m0 0 6 1 9 6 3 6 2 15-1 3-1 16-3 11-4 8-5 11v1h-8l-6-2 4-5 7-6 5-11 5-15 2-9v-17l-3-2v-2l-4-2-6-4-4-2z" fill="#684E56"/>
<path transform="translate(716,676)" d="m0 0 12 1 4 1-2 22-2 1-14-2-3-1v-16l1-5z" fill="#B6AFB3"/>
<path transform="translate(305,287)" d="m0 0h6l5 5 1 3h2l8 17v2h2l5 10 1 6 4 2 5 5 4 1 1 3-1 3-8 3-3 13h-1l-2 7h-1l-1-34-4-13h-2l-4-10-2 1-3-8-6-10-1-3h-5z" fill="#58676E"/>
<path transform="translate(454,272)" d="m0 0h39l35 1 2 2-3 1-32-1-38-2 1 31 8 1 59 1 5-2v3l-2 1h-71l-5-4v-30z" fill="#302D3E"/>
<path transform="translate(462,52)" d="m0 0h5l-3 2 1 2 1 4v32l26 1v2l-4 2-12 1-2 1v34l-3-1v-17l-1-1-1 18-2 1-2-1v-18l4-1-1-16h-4v-2h-5l3-3v-37l-14 3v-2z" fill="#7A868E"/>
<path transform="translate(440,161)" d="m0 0h13l1 3v19l-1 1h-11l-16-2 5-5 7-11 7-1v-2l-5-1z" fill="#286369"/>
<path transform="translate(619,499)" d="m0 0h7l7 3v1h-59l-5 2-1 2-5 1v-2h-71v-1l9-1 26-1-8-1v-1l77-1z" fill="#DFCEC5"/>
<path transform="translate(660,244)" d="m0 0h1l-2 176-1 52-1 4h-6l1-7 2-5 1-21 1-28h2l-1-87v-23l1-15 1-45z" fill="#394652"/>
<path transform="translate(396,760)" d="m0 0 18 1v2h-14l1 33-17-1v-20l3-1h8 2v-10h-6v-1h6z" fill="#694F57"/>
<path transform="translate(430,237)" d="m0 0 76 2 2 1 68 2h23l16 1 38 1v1h-51l-62-2-85-2h-21l-1 27h-1l-1-20-1-3z" fill="#B38782"/>
<path transform="translate(401,152)" d="m0 0h23l8 1h8l8 3 10 1v1l-17 2-1 1h-52l4-2 3-1v-3-2z" fill="#29646A"/>
<path transform="translate(540,575)" d="m0 0h18v17l-1 2-3 1-18 2h-14l-6-1 4-2h20z" fill="#5A4750"/>
<path transform="translate(408,828)" d="m0 0h15v1h-9l-1 27-1 13v13l2-2v8h-3l-1-6-4-2-2-9 1-19 2-21 2-1z" fill="#AC7873"/>
<path transform="translate(520,534)" d="m0 0h3v2l7-2h10l1 3v15l-2 1h-19z" fill="#38354C"/>
<path transform="translate(351,503)" d="m0 0 2 1-2 6 1 6 4 1 1-2 2 1-3 14-3 5-2 5-4 4h-3l-3-5v-9l1-3 1-9 4-9z" fill="#4E4049"/>
<path transform="translate(428,240)" d="m0 0h1v111l-1 124-1 1-8-1 1-2h7l-1-123 1-97z" fill="#6A5359"/>
<path transform="translate(379,506)" d="m0 0 5 1-2 2-9 3-6 15-3 11-1 12v20l1 7-26-3-1 2-1-3-3-1-1-2v-10h1l1 7 1 2 3-1 14 3 7 3 2-1-3-3v-26l2-10 4-8 1-6 3-6h2l2-4z" fill="#766061"/>
<path transform="translate(412,888)" d="m0 0h7l1 4 4 1 4 9 1 2 12 1v1l-22 1v14l-3 1v2h-8l4-3-1-18 1-12h-2v-2z" fill="#2B6F72"/>
<path transform="translate(573,510)" d="m0 0 2 2v24l-2 96-1 32h-1v-56h-1v-41l2-54z" fill="#3B7F88"/>
<path transform="translate(335,358)" d="m0 0h3l-1 7-1 12 4 4-13 22-1 4 11 3v3l-3 2-4-1 1-1h-8l-8-2 7-11 6-15 2-7h2v-10l2-3z" fill="#4D3F48"/>
<path transform="translate(370,921)" d="m0 0 5 4 17-1 30 2v1h-22l-12-1-1 1 27 6 1 2-3 3-4-2h-8l-4-1-19-2-24-6-2-1v-2l4-1 14 3z" fill="#9E736C"/>
<path transform="translate(521,554)" d="m0 0h18v20h-18z" fill="#845352"/>
<path transform="translate(503,575)" d="m0 0h17v20h-18v-19z" fill="#9D726C"/>
<path transform="translate(569,927)" d="m0 0 4 4 2 24 2 7 4 3h51l32-1 9 1-1 2-21 1h-40l-30 1-9-4-2-5z" fill="#B48882"/>
<path transform="translate(481,534)" d="m0 0h21l1 1v18h10v1h-11l-1-7-1 6h-16v-18l-4 1z" fill="#687C86"/>
<path transform="translate(570,672)" d="m0 0h1v66l-1 1 8 6 142 1v1h-147l-5-1v-2h3l-6-5-1-4 3-8 1-43h1z" fill="#547F89"/>
<path transform="translate(332,619)" d="m0 0h17l47 1v5h-63l-5-1 1-4z" fill="#3D3648"/>
<path transform="translate(344,969)" d="m0 0h8l53 12 5 1h42l46-3 18-2h7v2l-19 2-17 1-5 1-34 2h-40l-61-14z" fill="#4B363B"/>
<path transform="translate(575,748)" d="m0 0 9 1-2 5-5 6-4 11-2 6-4 15v9h-2v4h2v2l-4 1v-26l1-12h2l4-14 2-3h2z" fill="#B48882"/>
<path transform="translate(348,626)" d="m0 0h20v1l-10 1-2 24-3 8-3 3-2 5-1-4v-8l-1 10h-1v-15l2-21z" fill="#C49E96"/>
<path transform="translate(483,555)" d="m0 0h18v19h-18z" fill="#C29C94"/>
<path transform="translate(294,414)" d="m0 0 5 1-1 2h-3v54l82 2 4 3h-72l-13-1-2-3z" fill="#5D6F77"/>
<path transform="translate(591,807)" d="m0 0h25l-3 2-2 1 7 2 1 5-13 2h-10v-1h8v-2l-4-1-27-1-2-2 3-1-14-1v-1l28-1z" fill="#6C555B"/>
<path transform="translate(482,882)" d="m0 0h6l2 6v13l3 1 1 6-1 2 7 1v1h-6l1 6h-2l1 4-5 1-23 2-18 1h-24l-1-1v-18h1v15l2 1 29-1 21-2h8l4-1 3 1 1-17-7-1-1-14h3v-2l-5-3z" fill="#ADA3A4"/>
<path transform="translate(417,190)" d="m0 0h2l1 3v41l4 2h-5v125h-1l-1-126-2-10-1-17v-12z" fill="#2D4B59"/>
<path transform="translate(560,712)" d="m0 0h1v22l-23-2 2-2-4-7 10-4h6v-2z" fill="#A4615A"/>
<path transform="translate(427,714)" d="m0 0 5 1 4 3v2h-3v-2h-3l-1 19h23v1h-31l1-3-4-1 1-3-1-3 1-2-5-2-1-2-8-1-4-5v-1h20l2 16 3-16z" fill="#9C6C67"/>
<path transform="translate(332,285)" d="m0 0 9 1 10 9 3 5-1 4-3-1-2 3-2-5-4-4-13 1h-4l-3 3-3-4-1-4 1-1 10-1-1-2-7-2v-1z" fill="#414B53"/>
<path transform="translate(377,513)" d="m0 0h2v8l-7 26-4 17-3 4-1-1v-13l3-20 3-10 4-9z" fill="#AAA2A3"/>
<path transform="translate(700,720)" d="m0 0h17l3 2v7l-3 3-10 1h-13l-1-1v-9l2-2z" fill="#29405D"/>
<path transform="translate(448,502)" d="m0 0h5l-2 3-9 2-2 5-2 15-4 11-6 8-2 11h-2v-21h2l1-8 5-6 4-11 2-6 6-2z" fill="#8F5D5D"/>
<path transform="translate(373,626)" d="m0 0h2l-1 33-1 7-3 2-8 1-1 1h-14v-2l3-1h9l4-1v-5l3-6v-7h2v-11l1-7 2-1v-2z" fill="#AD7671"/>
<path transform="translate(565,745)" d="m0 0 24 2v1h-14l-1 5-3 3-4 14-2 1-1 11-1 26h25v1h-28v-20l1-21 1-3h2v-13z" fill="#A97671"/>
<path transform="translate(347,738)" d="m0 0h16l1 4v12l-10 2-2-2-6 2-3-13v-4z" fill="#D5D7D6"/>
<path transform="translate(689,595)" d="m0 0 4 1 11 7 4 3v2l2 1h-3l-2 6-2 5-5-2-9-6-1-1v-15z" fill="#58A6AE"/>
<path transform="translate(652,302)" d="m0 0h1v26l-2 148 3 1-5-1-1-2 1-53 1-105h1z" fill="#CECBCA"/>
<path transform="translate(322,770)" d="m0 0 9 2 4 21 4 2-7 1h-9l-5-18v-5z" fill="#6C5258"/>
<path transform="translate(430,717)" d="m0 0 3 1v2l4 1 11 7 4 6v2h5v1h-28l-1-6 1-13z" fill="#AD7671"/>
<path transform="translate(558,535)" d="m0 0h5v58l-5 1-1-2 1-37h-5l1-2h4z" fill="#161722"/>
<path transform="translate(364,523)" d="m0 0 1 3-4 8-2 10v24l3 5-1 2-8-2-6-2-12-2h-2v-15l1-6 1 4h2l1 7 4 5v2l3 1v2l8-1 2-20 3-14 5-10z" fill="#694F57"/>
<path transform="translate(437,637)" d="m0 0 5 1 23 1 18 2v10l-10-2-6-5-1-2-7 1-10 4-9 3-3-5z" fill="#264756"/>
<path transform="translate(628,417)" d="m0 0h16v20l-2-1h-14z" fill="#6F7B84"/>
<path transform="translate(537,732)" d="m0 0h10l13 1 4 9 2 1v2l-19-1-11-2-2-2v-6z" fill="#38272C"/>
<path transform="translate(545,476)" d="m0 0h71l30 1v2l-2 1h-78v17h-1l-1-18-27-1v-1z" fill="#A88E8D"/>
<path transform="translate(310,739)" d="m0 0h18l-3 2h-8v2h8v21l-5 2h-6l-3-23 3-1-4-1z" fill="#6D545B"/>
<path transform="translate(721,615)" d="m0 0 11 1 5 1v2h-3l-1 19h-10v-2h-3v-13z" fill="#D0D1D0"/>
<path transform="translate(354,589)" d="m0 0h1v7l2-4v7l2-3 7 4 2 3-1 7-2 4-2 2-4 2-3-1-1-2-3 1-2 3v-9l3-16z" fill="#C49E96"/>
<path transform="translate(449,326)" d="m0 0h1l1 58 3 2 24 1h18l21 1-2 2-6 1h-28l-3-2v11h-1v-8h-9l-2-1-11-1-5-3-2-9z" fill="#C59F97"/>
<path transform="translate(720,645)" d="m0 0 12 2 3 1v2h-2l-2 19-11-2-2-1 1-15z" fill="#D0D1D0"/>
<path transform="translate(559,278)" d="m0 0h2v28h2v2l4 1v2h63l-1 2-3 1h-40l-22-1-6-4v-30z" fill="#BA958E"/>
<path transform="translate(559,689)" d="m0 0 2 2v21l-5 4-4 2-4-1-2-1-1-4 3-9 1-2h2l2-5z" fill="#B38781"/>
<path transform="translate(485,598)" d="m0 0h7l4 4v33l-1 2 32 1v1h-68v-2l5-1h19l7-1 2-11-1-22h-2v-2z" fill="#B48882"/>
<path transform="translate(700,627)" d="m0 0 3 1v13l2 1-3 1v2h-3v2l-9 5-3-1v-16z" fill="#59A6AE"/>
<path transform="translate(426,374)" d="m0 0h1v99l-7 1-4 1 1-3 5-3 1-8 1-60 1-1z" fill="#4D3F48"/>
<path transform="translate(389,886)" d="m0 0 14 1v2l5 1-3 1h-3v29h3v2l2 1-5 1-4-4-1-8-3-1-1-15-4-8z" fill="#296168"/>
<path transform="translate(566,924)" d="m0 0h2l1 2 1 9 1 26 2 4 8 3-3 2-7-1-3-3-2-3-1-1-2-25-2 4-1-9-2-4-2-2 6 1v3h2z" fill="#AD7671"/>
<path transform="translate(629,494)" d="m0 0h14l3 1v2l-4 2-1 2-12 1-3-2-30 1h-76v-1l94-2 10-2z" fill="#A6908F"/>
<path transform="translate(610,438)" d="m0 0h16v17h-16z" fill="#D4B8AD"/>
<path transform="translate(565,240)" d="m0 0h31l55 2 11 1 1 4-1 14-1 46h-1v-51l1-12h-7v28h-1v-28h-38l-50-3z" fill="#736566"/>
<path transform="translate(386,814)" d="m0 0h12l22 4-2 1 1 3 2 2-2 2h-4l1-5h-2l-1 3-1-3h-4v2l-2 1 2 2-18-2v-3l-5-1v-5z" fill="#3A282C"/>
<path transform="translate(359,587)" d="m0 0 16 2 5 3 2 4-1 12-3 7-2 5h-27v-1l17-1 6-1 2-18-1-5-4-1-9-3-2-2z" fill="#9C706A"/>
<path transform="translate(731,680)" d="m0 0h5l-1 22h-3v2h-2l-1 2-9 2-4 3-88-1v-1l90-1v-2h2l1-4h6l-4-1 1-2 5 1z" fill="#29686D"/>
<path transform="translate(340,673)" d="m0 0h1l1 42-15 1-6-1v3l-8-1 1-2v-7h5l5-1h8l4-2 3-3z" fill="#765F61"/>
<path transform="translate(503,139)" d="m0 0 2 1-10 13h-2l-2 6h5l2-1v2h8l-2 1v5l3-3v20h-3l-2-17-4-2h-6l-4-2-8-1-1-2 5-3 10-10h2l2-4z" fill="#286268"/>
<path transform="translate(606,402)" d="m0 0h1v35h19l2 1v17h14l-2 2h-33l-1-1-1-8v-33zm4 36v17h16v-17z" fill="#A67772"/>
<path transform="translate(340,738)" d="m0 0 4 1-4 1-1 4-1-1-4 6v17h-6l1-3h-2l-2-11v-9h-8v-2z" fill="#3D3442"/>
<path transform="translate(506,140)" d="m0 0h2l2 8 2 6 3 1 7 2v1l-25 1-1 1h-6l3-7 5-5 6-7z" fill="#254757"/>
<path transform="translate(421,750)" d="m0 0h7l1 2-3 8-5 2 1 3 2 1-2 26-1 4-2 1-2 14h-1l-2-14-4-2h8v-11l1-20-4-1v-2l-9-1v-1h15z" fill="#A97874"/>
<path transform="translate(563,318)" d="m0 0 2 1-1 1-1 58-2 8-2-1v-63z" fill="#AE847F"/>
<path transform="translate(482,535)" d="m0 0h2v18h16l1-15h1v16l18-1v20l-1 1h-15v-1l12-1v-4h2v-11l-2-1-13-1v19l-2-4v-15h-21v-19z" fill="#534D55"/>
<path transform="translate(512,873)" d="m0 0h8v3l6 1 1 3-8-1-3 1-2 6v12l3 5 2 1 1 12h-20l-1 3-4-1-2-2 1-4h11l13 2-1-5h-2l-4-9v-26z" fill="#A27772"/>
<path transform="translate(467,744)" d="m0 0 2 4-1 1-1 19-7-4-4-3v-3l-4-2-2-4h-2v-2h-18v-1l36-1z" fill="#AA7570"/>
<path transform="translate(521,575)" d="m0 0h8l4 4 1 3v11l5-1 1 2h-20z" fill="#273459"/>
<path transform="translate(363,736)" d="m0 0h1l4 24-2 1-19 1-3 1-4-23 3-1 4 15h2l2-2 4 3 7-1 1-3v-9l-1-5z" fill="#B6AFB2"/>
<path transform="translate(529,973)" d="m0 0 16 1v1l-14 1-7 1-1 2v-2l-25 3-15 1h-19v-2l3-1 18-1 7-1 1-1 12-1h23z" fill="#AC7570"/>
<path transform="translate(563,528)" d="m0 0h1v6h-6v19h-12l-2-1v-7l3-7 10-4h-2v-2h4l1-2 3 1z" fill="#835150"/>
<path transform="translate(424,184)" d="m0 0 4 1-1 11v38h-6l1-4 2-5-2-5v-12l-1-19h-5v-3z" fill="#2C7074"/>
<path transform="translate(358,762)" d="m0 0h4l-1 3-16 5-6 3v6l2 6 1 6-5 1-1-7-4-10-1-3-8-1 2-2 11-1 7-3z" fill="#423744"/>
<path transform="translate(360,794)" d="m0 0h4v2l4 1 3 9-2 1 1 2h11l1-4h2l2 5 3 4-4 1-1-2-18 3-6-15-1-5z" fill="#BBB5B8"/>
<path transform="translate(659,319)" d="m0 0h1v129l1 29h-7l3-1 1-56z" fill="#3B6369"/>
<path transform="translate(713,645)" d="m0 0h1l-1 16-1 6 14 2 5 2-1 2-12-3v2l-10-3-3-1v-7l-1-1 1-11z" fill="#171824"/>
<path transform="translate(338,574)" d="m0 0h11l12 2 7 2 10 2 10 3v1h-10l-21-2-1-1-19-2z" fill="#28212A"/>
<path transform="translate(429,187)" d="m0 0h1v45l51 2v1h-49l-5-1-1-11v-32l2 1z" fill="#3E838C"/>
<path transform="translate(501,599)" d="m0 0 3 2 1 20 2 13 7 1 26 1-3 3-32-1-3-2-1-13z" fill="#956765"/>
<path transform="translate(379,886)" d="m0 0 3 1v2h2v2l5 1 2 7-9-3v2h-2v9l-3-4-7-2-1-1v-8l4-4 5 1 1 1z" fill="#674F57"/>
<path transform="translate(417,693)" d="m0 0 4 4 7 8 4 3v2l2 1-2 1-7-4-2 6v14h-1l-1-13h-2v-2l-5-1-1-5 2-5 1-8z" fill="#815050"/>
<path transform="translate(431,498)" d="m0 0 17 1 72 1v1l-76 1-7 2-10 1-3 3-1 29h-1l-2-26v-7l6-2v-1l5-1z" fill="#503D42"/>
<path transform="translate(358,795)" d="m0 0 2 1 1 5 5 13 1 1 19-3-4 4-13 6-8 4-7-1 5-5 1-3h3l-5-13-2-7h2z" fill="#906C6B"/>
<path transform="translate(566,810)" d="m0 0h13v1l-6 2 27 1 4 2v2l-8 1h-22l-9-1-2-6z" fill="#3D3848"/>
<path transform="translate(631,318)" d="m0 0 3 2 1 3v21l-1 8h-12v-18h2l2 2h1v13l5 1-1-5-1-8v-9l1-4-1-5z" fill="#F1F1EE"/>
<path transform="translate(444,162)" d="m0 0 4 1h-3v2l-7 2-6 10-2 4-11 3h-4v2h-17v-1l5-1-1-8v-13l2 3 2-1v16h15l5-5 6-8h2v-2l9-3z" fill="#3B7F88"/>
<path transform="translate(444,501)" d="m0 0h11v1l-16 3-2 7-5 12-4 2-2 10h-2v-17l3-7 7-6 5-4z" fill="#674E56"/>
<path transform="translate(430,320)" d="m0 0h1l1 22h1v58l-3 2-1-1v-52z" fill="#AFA4A6"/>
<path transform="translate(342,672)" d="m0 0h3v42l29-1v1l-22 2h-10l-1-2v-41z" fill="#9A9597"/>
<path transform="translate(716,584)" d="m0 0h1v10l-3 11-3 2-4-1-5-5 3-1 2-12 2-3z" fill="#1F2940"/>
<path transform="translate(575,325)" d="m0 0h1v58l56 1-1 2h-52l-5-3v-35z" fill="#28293B"/>
<path transform="translate(479,652)" d="m0 0h15l9 2 35 1h24l-3 2h-52l-44-1-5-1v-1l20 1z" fill="#486169"/>
<path transform="translate(331,371)" d="m0 0h1v7h-2l-1 7-6 15-7 10 9 2h6l1 2-2 1-13 1h-12l4-3 5-5 2-5 8-16 3-11h2z" fill="#786061"/>
<path transform="translate(455,814)" d="m0 0h18l2 3v6l-3 1-1-3-5-2v2l-19 1h-23l-4-2 1-1 11-1 38-1-2-1-13-1z" fill="#444D55"/>
<path transform="translate(481,880)" d="m0 0 1 2-1 4-4 1-24 1h-38v-1l9-1 49-4h6z" fill="#A79392"/>
<path transform="translate(737,587)" d="m0 0h7l-1 7h-1v-6l-5 2-3 18h-5l-4-2-4-1v-9h1v8l1-1 1-9h2l1-2 4-1 3-3z" fill="#B5AFB3"/>
<path transform="translate(612,419)" d="m0 0h14v17h-10l2-2-5-4v-7z" fill="#69A5AC"/>
<path transform="translate(434,711)" d="m0 0 6 2 10 4h20l1-2 5 2 1 2-2 1-1 3-10 2-12-2-6-2-1-2-8-3v-2l-3-1z" fill="#7E4F4F"/>
<path transform="translate(484,576)" d="m0 0h16v15h-1v-5l-4-1-4 2-4 7h-3z" fill="#687C86"/>
<path transform="translate(384,824)" d="m0 0h1l1 8-1 3 3 5 1 9-3 17-4 1-2-3 1-16z" fill="#AD7973"/>
<path transform="translate(560,821)" d="m0 0h3l-1 19v36h20v1l-10 1h-14v-35l1-18z" fill="#AD7A75"/>
<path transform="translate(421,537)" d="m0 0h1v13l-2 16-4 14-4 3-8-2 2-5 5-8 3-1 3-5 3-14z" fill="#4D3F48"/>
<path transform="translate(469,137)" d="m0 0 2 4 1 15 7-1 4-2 2-4 5-4h2v-2l7-4 4 1-6 4-15 15-3 1h-12v-22z" fill="#3B7F88"/>
<path transform="translate(557,593)" d="m0 0h6v22l-1 19h-1v-7l-4-2 1-9-2-17-1-2-13-1v-1l12-1z" fill="#4B4049"/>
<path transform="translate(364,582)" d="m0 0 9 1 3 3 8 1 3 6 1 13-1 4v7l-5 2h-6l3-2h2l2-8v-14l-3-5-1-1-15-2-4-2 1-2z" fill="#905D5D"/>
<path transform="translate(409,634)" d="m0 0h13l-1 2 4 13 3 3-12-1-4-2-2-8z" fill="#674E56"/>
<path transform="translate(565,277)" d="m0 0 2 3v28h33l1 2h-34l-4-2-1-2v-28z" fill="#2A293A"/>
<path transform="translate(539,894)" d="m0 0 2 1 1 13 5 4 3 1 18 1v-11h1v12h-22l-7-2-9 1h-10l3-3 7-2 5-5 1-7z" fill="#32262D"/>
<path transform="translate(560,516)" d="m0 0 3 1-1 4-8 5-5 2-9 3-7 1h-8l1-3 16-6 13-4z" fill="#B48882"/>
<path transform="translate(428,473)" d="m0 0 1 2h46v2l2 1h-55l3 14-1 5h-3l-1-19-6-1 4-3 9 1z" fill="#9D7F7C"/>
<path transform="translate(493,165)" d="m0 0h2l2 13 1 7h-14l-4-2 4-1 2-6 4-9z" fill="#254757"/>
<path transform="translate(413,189)" d="m0 0 3 1-5 5-1 12v12l1 16 6 3 1 4-6-1-5-5-1-9v-27l2-7h2v-2z" fill="#3B7F88"/>
<path transform="translate(455,383)" d="m0 0h14l2 1 52 1-3 3h-44l-22-1z" fill="#A37571"/>
<path transform="translate(404,526)" d="m0 0h1l1 7-1 3-1 16-3 11-4 8-5 11v1h-8l4-2-1-2h2l2-5 6-13 2-5 4-28z" fill="#5B4851"/>
<path transform="translate(427,234)" d="m0 0 85 1 27 1v1l-10 1h-30l-20-1-49-1z" fill="#5B7C86"/>
<path transform="translate(344,965)" d="m0 0h18l13 3h5l5 2 12 3 7 3v2l-9-1v-2l-8-1-27-4-15-3z" fill="#946563"/>
<path transform="translate(466,322)" d="m0 0 3 1v56l-1 2-3-1v-56z" fill="#363E50"/>
<path transform="translate(358,977)" d="m0 0h9l23 5 12 3 26 1v1h-44l-7-3-11-3-8-3z" fill="#997D7B"/>
<path transform="translate(321,308)" d="m0 0 3 4 3 6 3 4 2 6v32h-1l-1-16v-14h-2l1 9v18h-1l-1-13v-12h-2l-3-16-1-1z" fill="#BDB8B9"/>
<path transform="translate(389,763)" d="m0 0 8 1 1 10-2 2-1-1h-8l-2 1-1 18h-1v-30z" fill="#776162"/>
<path transform="translate(344,969)" d="m0 0h8l53 12 11 2 17 1v1h-25l-61-14z" fill="#251E26"/>
<path transform="translate(404,500)" d="m0 0h16l-4 3 4 13v14l-2 5-2-1v-10l-4-17-4-4-5-1z" fill="#181822"/>
<path transform="translate(502,576)" d="m0 0h10l-1 18-2 1h-7z" fill="#A8736E"/>
<path transform="translate(397,715)" d="m0 0 5 1 3 4 11 2 1 3 2 1 1 7-2 2h-7l-3-2 3-1-2-2 1-3-7-4-6-2-2-4z" fill="#697B85"/>
<path transform="translate(393,903)" d="m0 0h1l1 8 2 1 1 8 2 1 2 3h-28l1-2 9-3 6-4 1-2 1-9z" fill="#274656"/>
<path transform="translate(424,618)" d="m0 0h13l-4 1v10l-3 5h-8v-15z" fill="#875D5D"/>
<path transform="translate(528,131)" d="m0 0h8v1h-7l1 5h1v17l-3 2-1-16-12-1-7-1-10-2v-1l28-3z" fill="#3C797F"/>
<path transform="translate(326,377)" d="m0 0 1 4-6 15-6 11-2 4-3 2 5 1v1l-16 1-6-3 2-2 1 1 9-1 9-8 5-10 4-15 2 2z" fill="#957F7E"/>
<path transform="translate(476,97)" d="m0 0 3 1h-2l1 19v16l-4 2-1-3v-33z" fill="#B1ABAC"/>
<path transform="translate(513,426)" d="m0 0h1v15l5 1 53 1v1l-6 1h-50l-5-3v-13z" fill="#A67B76"/>
<path transform="translate(488,164)" d="m0 0 3 1-5 3-7 11-4 4 1 2-23-1 2-19 2 3 1 14h8l7-4 9-10z" fill="#3B7F88"/>
<path transform="translate(297,475)" d="m0 0h70l15 1 30 1v1h-51l-60-1z" fill="#B1A6A8"/>
<path transform="translate(563,275)" d="m0 0h71l3 3v31h-1v-29l-2-1-1-1-11-1h-54l-6 1v28h-1v-29z" fill="#574952"/>
<path transform="translate(527,886)" d="m0 0 4 1 4-1 1 2v13l-3 5-3 2 1-5-5-2-1-5z" fill="#6D545A"/>
<path transform="translate(376,504)" d="m0 0h10v2l-10 2-5 4-1 2h-2l-1 3-10 10 1-11 5-6 10-5z" fill="#414B53"/>
<path transform="translate(373,626)" d="m0 0h2l-1 33-1 7-3 2-8 1-1 1h-14v-2l3-1h9l9-2 2-7 2-27z" fill="#9E736C"/>
<path transform="translate(456,479)" d="m0 0 6 1v13l-2 2h-6l-2-1-1-7 1-7z" fill="#776162"/>
<path transform="translate(456,135)" d="m0 0h11l-1 4-2-1h-8l-3 1-14 1-21 2-9 1-16 1-9 1 2-2 24-3 21-2z" fill="#55838B"/>
<path transform="translate(430,714)" d="m0 0 4 1 14 9 3 1 4 4 6 3 6 4-1 2-14-2-4-7-12-8-1-3z" fill="#A76A66"/>
<path transform="translate(432,677)" d="m0 0 5 1 3 2 8 11 5 8 1 5-7-6-7-7-6-9-11-1v-1h9z" fill="#664D56"/>
<path transform="translate(619,499)" d="m0 0h7l7 3v1h-59l-5 2-1 2-5 1v-2l9-5z" fill="#D5D7D6"/>
<path transform="translate(552,486)" d="m0 0 7 1 2 1-1 4-4 5h-16l2-4 7-6z" fill="#687C86"/>
<path transform="translate(408,977)" d="m0 0 5 2 3 1h40l8 1v1l-12 1h-42l-4-5z" fill="#976866"/>
<path transform="translate(531,964)" d="m0 0 11 3 16 3 11 2 11 1v1h-22l-25-3h-2z" fill="#33262C"/>
<path transform="translate(434,496)" d="m0 0 15 1 74 2v1h-75l-13-1z" fill="#171722"/>
<path transform="translate(717,645)" d="m0 0h3l-1 14-1 7 13 3v1l-11-1-8-2 1-14 1-7z" fill="#6F6367"/>
<path transform="translate(562,765)" d="m0 0h2v17l-1 26h25v1h-28v-20l1-21z" fill="#A66F6B"/>
<path transform="translate(541,575)" d="m0 0h7l2 17 2 1-11 1z" fill="#865554"/>
<path transform="translate(617,873)" d="m0 0h7v2h-2v2l-30 2h-31v-1l30-2z" fill="#ACA5A6"/>
<path transform="translate(559,656)" d="m0 0h3v37h-1l-1-34h-38l-29 1-12-1-1-2h41z" fill="#776162"/>
<path transform="translate(517,874)" d="m0 0 11 1 7 1v2l-2 1 2 7-5 2-3-2v8h-1l-3-9-3-2 1-4 6 1-3-3h-7z" fill="#5F4A53"/>
<path transform="translate(319,389)" d="m0 0 1 4-6 11-4 2-2 4-6 3h-6l-6-2-4-5 3-1 12 2 6-2 6-4z" fill="#73585D"/>
<path transform="translate(451,275)" d="m0 0h1l1 29 4 3 69 1v1h-72l-4-3v-30z" fill="#8C6765"/>
<path transform="translate(739,615)" d="m0 0 2 3-3 22-4 1v-2l-6 1-4-1v-2l9 1v-12l1-7h3z" fill="#6B646A"/>
<path transform="translate(739,588)" d="m0 0h3v8l-1 14-2 2h-3v-3h-6l1-2h2l3-17z" fill="#5C555D"/>
<path transform="translate(478,487)" d="m0 0h4l3 5v2h3l1 2 6 1 17 1v1h-21l-25-1 1-2h7l2-4z" fill="#38282D"/>
<path transform="translate(493,918)" d="m0 0 15 2 17 4-4 1-10-1-1 2h-17v-2l-3-1 3-1z" fill="#D9D7D4"/>
<path transform="translate(305,287)" d="m0 0h6l5 5 1 3h2l11 24-1 3-2-2-2-3-3-7-2 1-3-8-6-10-1-3h-5z" fill="#7A6E71"/>
<path transform="translate(356,973)" d="m0 0 9 1 43 10 26 1v1h-32l-18-4-21-5-7-3z" fill="#5D4850"/>
<path transform="translate(430,237)" d="m0 0 76 2v1h-70l-2-1-1 29h-1l-1-20-1-3z" fill="#A8746F"/>
<path transform="translate(532,944)" d="m0 0h1v16l6 1 16 6 11 4v1l-8-1-20-4-7-3v-15z" fill="#7F4F4F"/>
<path transform="translate(412,888)" d="m0 0h7l1 4 4 1 4 9 1 2 12 1v1l-18 1-2-1-3-9-1-2 1-2h-4v-3h-2z" fill="#417E87"/>
<path transform="translate(512,425)" d="m0 0 2 1-2 3v13l4 2h55l-2 2-4 1h-49l-5-2-1-1v-16z" fill="#C49E96"/>
<path transform="translate(416,189)" d="m0 0h5l1 2 1 18v11l2 7-3 5v1l8 2v1l-10-1-1-1v-44z" fill="#2A6268"/>
<path transform="translate(429,652)" d="m0 0 4 1v2l74 1 14 1v1h-24l-54-1-5 1h-7v-2l-6-1 1-2z" fill="#694F57"/>
<path transform="translate(332,285)" d="m0 0 9 1 10 9 3 5-1 4-3-1-2 3-2-5-5-6-2-5-8-3z" fill="#254757"/>
<path transform="translate(643,418)" d="m0 0 1 2v17l-5-4-1-7h-7l-2-7z" fill="#67A7AD"/>
<path transform="translate(469,96)" d="m0 0h1v16h3l1 21-3-1v-17l-1-1-1 18-2 1-2-1v-18l4-1z" fill="#606F79"/>
<path transform="translate(484,903)" d="m0 0h8v10l-1 2-5-2-1-4-2-2h-43v-1z" fill="#C7C5C6"/>
<path transform="translate(719,583)" d="m0 0h5l-3 22 9 1-1 2-11-2-2-1v-11l2-10z" fill="#6D7A82"/>
<path transform="translate(520,534)" d="m0 0h3v2l7-2h10l-1 2-11 2-3 2-1 6 3-1 1 5-1 3h-7z" fill="#49434A"/>
<path transform="translate(577,385)" d="m0 0 53 1-3 2h-65v-2z" fill="#9B6F6C"/>
<path transform="translate(358,582)" d="m0 0h6l-3 3 10 2 8 1 4 4 1 3v14l-3 8-5 1 4-10 1-12-2-4-9-3-12-1-1-5z" fill="#966866"/>
<path transform="translate(716,676)" d="m0 0h2l-1 22 2 1-8-1v-16l1-5z" fill="#6A7A83"/>
<path transform="translate(629,494)" d="m0 0h14l3 1v2l-4 2-1 2-12 1-3-2-6-1 4-3z" fill="#7A6D70"/>
<path transform="translate(533,870)" d="m0 0h8l16 6 1 3-16-2-14-3 1-3z" fill="#805151"/>
<path transform="translate(562,656)" d="m0 0h1v39l-1 41 5 2 4 5 3 2h-8v-2l-4-2-2-7z" fill="#486169"/>
<path transform="translate(451,318)" d="m0 0h1v65h2l1-2v3l-1 2-4-2v-65z" fill="#B38983"/>
<path transform="translate(591,807)" d="m0 0h25l-3 2-2 1 7 2 1 5h-2v-4h-37l1-2 27-2-17-1z" fill="#767D84"/>
<path transform="translate(329,773)" d="m0 0h2l4 20 4 2-7 1h-9l-3-12 1-2 3 2 2 3 4 1 1 2-1-11z" fill="#786062"/>
<path transform="translate(378,509)" d="m0 0h7l2 2-5 2-2 1v-2h-3l-1 3h-2l-1 5-4 9-3 16h-2l-1 4-1-2 2-12 4-14 5-9z" fill="#6B7C85"/>
<path transform="translate(419,907)" d="m0 0h4v19h-21l-10-1v-1h24v-2l2-1z" fill="#505058"/>
<path transform="translate(552,916)" d="m0 0h20v3h-3l-1 2h-4l-2 1h-10l-10-3 2-2z" fill="#C29B94"/>
<path transform="translate(734,646)" d="m0 0 4 1v14l-1 8 3-1v2l-2 1 8 2v1l-14 2v-4h2v-2h2l-1-13-3 12h-1l1-16 1-3h2z" fill="#4D535E"/>
<path transform="translate(492,598)" d="m0 0h6l1 4v33l-1 3h-8v-1h5v-35l-1-3z" fill="#AD7671"/>
<path transform="translate(479,538)" d="m0 0h1v17h3v19h11v1h-14v18h-1z" fill="#8D5A5A"/>
<path transform="translate(569,504)" d="m0 0 2 1-3 6-2 2-1 22-1 74h-1v-74h-5v-1h6v-23z" fill="#435860"/>
<path transform="translate(541,492)" d="m0 0 2 1-3 4h50l24 1v1l-62 1v-1l-13-1-1-4z" fill="#675358"/>
<path transform="translate(604,420)" d="m0 0h1l1 28 1 8 30 1v2l-19 1h-11l-3-2-1-7z" fill="#BF9790"/>
<path transform="translate(422,478)" d="m0 0h18v1l-11 1 1 16-3 2-4-1 1-5-2-8z" fill="#57454D"/>
<path transform="translate(469,382)" d="m0 0h53l3 2-1 1h-53l-2-1z" fill="#312F40"/>
<path transform="translate(454,272)" d="m0 0h39l35 1 2 2-3 1-32-1-13-1h-29z" fill="#473D4B"/>
<path transform="translate(401,715)" d="m0 0h18l1 9-1 4v-2l-5-2-1-2-8-1-4-5z" fill="#766162"/>
<path transform="translate(462,52)" d="m0 0h5l-3 2 1 2 1 4v33l-4-1v-37l-14 3v-2z" fill="#50828A"/>
<path transform="translate(341,965)" d="m0 0 19 4 10 2 4 3-9-1-13-3h-5l9 2v2l5 1 2 2h-5v-2l-13-1-6-4 4-1z" fill="#705054"/>
<path transform="translate(550,884)" d="m0 0 2 1v3h4l1 3v14l-5 3-2-11z" fill="#5A4952"/>
<path transform="translate(346,769)" d="m0 0 3 1 6 15 4 2 9-1 7-1v2l-4 1v4h-2v-3l-9 2-5-1-3 1-3-11z" fill="#AFA7A9"/>
<path transform="translate(466,640)" d="m0 0 17 1v10l-10-2-6-5z" fill="#254657"/>
<path transform="translate(641,908)" d="m0 0 11 1 24 5-2 2h-5v-1l-27-1z" fill="#DED1C9"/>
<path transform="translate(611,417)" d="m0 0h16v18h-1v-16h-14l2 5v6l4 3 4 2-12 1v-17z" fill="#6B7780"/>
<path transform="translate(398,160)" d="m0 0h3v2l-21 3-34 3h-10v-2l35-3z" fill="#E3E4E2"/>
<path transform="translate(434,724)" d="m0 0 3 1 5 5v5l1 2h-14l2-1-1-4 2-7z" fill="#B48882"/>
<path transform="translate(501,550)" d="m0 0 1 4 18-1v20l-1 1h-15v-1l12-1v-4h2v-11l-2-1-13-1v19l-2-4z" fill="#4D3C44"/>
<path transform="translate(365,883)" d="m0 0h1l1 6 4-1v-2h8l1 5-4-2h-5l-2 6-1 2v13l2 11-2-1-3-8z" fill="#A98480"/>
<path transform="translate(427,374)" d="m0 0h1v101l-1 1-8-1 1-2h7z" fill="#776162"/>
<path transform="translate(497,158)" d="m0 0 1 2h8l-2 1v5l3-3v20h-3l-2-17-4-2h-6l-4-3 7-1z" fill="#2D7276"/>
<path transform="translate(492,976)" d="m0 0 16 2v1l-25 2h-19v-2l3-1 18-1z" fill="#976362"/>
<path transform="translate(426,374)" d="m0 0h1v99l-7 1 1-2h2v-2h3z" fill="#664C53"/>
<path transform="translate(389,741)" d="m0 0 5 1 2-1 1 4v13l-2-2h-3l-6-11 1-2-3-1z" fill="#776162"/>
<path transform="translate(375,626)" d="m0 0h9v1l-6 1-2 1v37h-2v2l-6 2h-7l1-2 8-1 2-3 1-5 1-31z" fill="#926765"/>
<path transform="translate(407,831)" d="m0 0 2 1v12l-1 23-2 10h-1l-1-13 2-26z" fill="#A66D68"/>
<path transform="translate(652,302)" d="m0 0h1v26l-1 36h-2v-48h1z" fill="#CBC6C5"/>
<path transform="translate(530,964)" d="m0 0h1v7l3-1 24 3 27 1v1h-40l-15-1z" fill="#7C5557"/>
<path transform="translate(334,548)" d="m0 0 1 4h2l1 7 4 5v2l3 1 1 3-13-1v-15z" fill="#70545A"/>
<path transform="translate(653,964)" d="m0 0h13l7 1-1 2-21 1h-25v-2l6-1z" fill="#B1847E"/>
<path transform="translate(731,680)" d="m0 0h5l-1 22-5-1v-10z" fill="#495059"/>
<path transform="translate(380,910)" d="m0 0h1l-1 8-5 5h17v1l-17 2-5-5-1-7h9z" fill="#845B5C"/>
<path transform="translate(337,579)" d="m0 0 19 1 1 2h-3l-1 4-1 2-7-2-3-3-3 1-1 2h-2v-6z" fill="#9B6B68"/>
<path transform="translate(427,504)" d="m0 0h10l-3 3h-2l-1 3-4 3-2 9-1 14h-1v-28z" fill="#5C4952"/>
<path transform="translate(514,424)" d="m0 0 2 3 1 12 1 1 17 1h34l5 1v1h-55l-5-2z" fill="#4F3F48"/>
<path transform="translate(444,718)" d="m0 0 2 1v2l6 1 14 2 9-2-2 4-6 3-9-2-10-2-6-4 2-1z" fill="#905D5D"/>
<path transform="translate(718,615)" d="m0 0h3l-1 21h3v2l-8-1 1-21z" fill="#6F6467"/>
<path transform="translate(549,483)" d="m0 0 2 2-4 2-4 5-5 2 1 4h-11l-5-1v-2l15-4 4-2v-2z" fill="#49626A"/>
<path transform="translate(443,167)" d="m0 0h2l2 12-1 3 2 1h-10l-2-2 2-1 1-7z" fill="#254757"/>
<path transform="translate(361,673)" d="m0 0 2 1v19l2 13v6l-6 1 1-2v-37z" fill="#B7A7AA"/>
<path transform="translate(360,589)" d="m0 0 11 1 6 3 1 5-3 19-1 2h-8l4-2h2l2-18-1-5-4-1-9-3z" fill="#AC7570"/>
<path transform="translate(611,967)" d="m0 0h15l9 1v1l-8 1h-43l-1-2z" fill="#A8726E"/>
<path transform="translate(521,554)" d="m0 0h1v19l14-2 1-5-2-2v-7l-4-3h8v20h-18z" fill="#654E56"/>
<path transform="translate(521,552)" d="m0 0 9 1v1h-9v20h11v1h-11v17h-1v-17l-17 1-1 14h-1l-1-16 2-4v4l17-1v-19z" fill="#33252A"/>
<path transform="translate(496,652)" d="m0 0h14l8 1 44 1v1l-32 1-27-1-7-2z" fill="#286268"/>
<path transform="translate(529,575)" d="m0 0h7l3 1v16l-5 1-1-11-2-6z" fill="#1F2840"/>
<path transform="translate(338,972)" d="m0 0 4 1 8 3 7 2 2 4h-2v2l-9-2-9-6z" fill="#B4A8AB"/>
<path transform="translate(664,966)" d="m0 0h8l-2 2-19 2-14 1-5 1h-12v-1l7-1v-1l24-2z" fill="#664A4C"/>
<path transform="translate(463,636)" d="m0 0 64 2v1h-68v-2z" fill="#A5837F"/>
<path transform="translate(635,357)" d="m0 0h1v8h2l1-2 1 4-1 2v14l-3 5h-3l-3-2 4-3z" fill="#D5C7C1"/>
<path transform="translate(337,968)" d="m0 0h2l3 3 3 2 13 2v3l6 1 8 3 10 3v1h-6l-18-5-1-3h-6l-2-2-7-2-5-2-1-3z" fill="#B28781"/>
<path transform="translate(448,502)" d="m0 0h5l-2 3-9 2-2 5-3 12-2 2-2-7 3-9 2-5 6-2z" fill="#776162"/>
<path transform="translate(656,415)" d="m0 0h1v48l-1 11-5 1 2-7 1-4 1-21z" fill="#3D3648"/>
<path transform="translate(590,616)" d="m0 0h1l1 18 12 7 9 7 1 3-5-2-14-9v-2l-4-1-2-2v-14z" fill="#22364A"/>
<path transform="translate(639,905)" d="m0 0h1l2 9h28l-1 2-5 1-20 1-4-1z" fill="#D4BAAF"/>
<path transform="translate(514,885)" d="m0 0h1v9l-1 2h2v4h9l1 4-2 4-4 1-1 2-1-5 1-2-3-1-3-5v-12z" fill="#986260"/>
<path transform="translate(473,829)" d="m0 0h1v6h2v8l1 5 1 18-1 2h2l1 16-2-2-3-23-2-22z" fill="#D6BBAF"/>
<path transform="translate(730,618)" d="m0 0 4 1-1 19-2-1v-3l-3 1-2-2v-4l2-6h1z" fill="#B7B0B4"/>
<path transform="translate(328,330)" d="m0 0h2l1 14v-11h2v30l-2 5h-1l-2-29z" fill="#AAA2A3"/>
<path transform="translate(482,882)" d="m0 0h6l2 6v13l3 1 1 6-2 3v-8l-7-1-1-14h3v-2l-5-3z" fill="#A29EA0"/>
<path transform="translate(360,792)" d="m0 0h3v2l-5 1v2h-2v2l-7 7-5-8 5-1v-2l4-2z" fill="#30242C"/>
<path transform="translate(348,626)" d="m0 0h5v5h-2l-2 17h-1l-2 18h-1v-15l2-21z" fill="#B48F89"/>
<path transform="translate(335,358)" d="m0 0h3l-1 7-2 11-7 17-3 3 1-5 4-13h2v-10l2-3z" fill="#604B53"/>
<path transform="translate(308,286)" d="m0 0h13l8 3v3l-10 1-2 2-2-5-4-2z" fill="#4C636B"/>
<path transform="translate(517,539)" d="m0 0h2l1 2v12h-7l-3-1v-4h2v-2l2-1z" fill="#B1837D"/>
<path transform="translate(572,896)" d="m0 0 4 1h-3l1 8 3 6 7 2h16v1l-28 2z" fill="#B7A7AA"/>
<path transform="translate(575,814)" d="m0 0h25l4 2v2l-8 1h-10v-3l-11-1z" fill="#4D4048"/>
<path transform="translate(708,678)" d="m0 0h4l-2 19-2 2-3-7h2l-2-7v-5z" fill="#161723"/>
<path transform="translate(495,584)" d="m0 0 4 2 1 8-3 1-10-1 2-5 3-4z" fill="#49626A"/>
<path transform="translate(444,162)" d="m0 0 4 1h-3v2l-7 2-6 10-2 4-7 1 1-4 2-2 6-8h2v-2l9-3z" fill="#3A7E87"/>
<path transform="translate(328,664)" d="m0 0h9l3 2v2h3v2h-12l-2 1h-6v-5z" fill="#8B5D5D"/>
<path transform="translate(297,287)" d="m0 0h8v3h5v5l-4 1-11-3 1-5z" fill="#4F4049"/>
<path transform="translate(407,633)" d="m0 0 3 2 2 11 1 3 12 2 4 1-1 2-1 1-1 6-2-2v-7h-10l-5-3-2-5z" fill="#856E6E"/>
<path transform="translate(426,501)" d="m0 0h2v2l4-1h7l-2 2-10 1-3 3-1 29h-1l-2-26v-7l6-2z" fill="#493D48"/>
<path transform="translate(369,496)" d="m0 0h7l5 1v4l-15 2-3-1v-3z" fill="#1F2840"/>
<path transform="translate(365,916)" d="m0 0 4 4v2h-10l-14-3v-2h19z" fill="#F1F1EE"/>
<path transform="translate(374,713)" d="m0 0h13v1l10 1v1h-14l-1 5h-1l-1 13-2-4-1-15h-12v-1z" fill="#665056"/>
<path transform="translate(558,535)" d="m0 0h5v17l-5 1z" fill="#38282D"/>
<path transform="translate(568,896)" d="m0 0h2v18h2v2h-26l-22-1v-1l11-2 7 1 5 1 22 1z" fill="#664C52"/>
<path transform="translate(558,878)" d="m0 0 9 1 4 4 2 12h6v1h-7l-4-4-2-5-1-5-4-1z" fill="#427E87"/>
<path transform="translate(718,676)" d="m0 0 10 1 4 1-1 5-1-3h-6l-4 4-2 12 9 1v1h-7l-3-1v-15z" fill="#D1D1D1"/>
<path transform="translate(354,799)" d="m0 0h3l6 15-1 3-3-4-6-2v-11z" fill="#765F61"/>
<path transform="translate(427,714)" d="m0 0 3 1-3 6-1 13h-7l-1-6h2l-1-8v-5h2l2 16 3-16z" fill="#936967"/>
<path transform="translate(352,802)" d="m0 0 2 4-1 5 7 2 2 4h-2v2l-3 1-1-2-2 2-5-13z" fill="#674E56"/>
<path transform="translate(431,632)" d="m0 0h2l-3 6h-2l-3 9h-2l-3-12 10-2z" fill="#423847"/>
<path transform="translate(375,621)" d="m0 0h20v4h-30v-1l11-1z" fill="#161722"/>
<path transform="translate(519,575)" d="m0 0h1v20h-7l2-1 1-7-1-3v-7h3z" fill="#90615F"/>
<path transform="translate(658,431)" d="m0 0h1l1 17 1 29h-7l3-1z" fill="#4A626A"/>
<path transform="translate(344,969)" d="m0 0h8l35 8-2 2-7-1-31-7z" fill="#2E2228"/>
<path transform="translate(588,808)" d="m0 0h22l-2 2-15 1h-14l-19-1v-1z" fill="#5B4B53"/>
<path transform="translate(410,676)" d="m0 0 1 4h12v1h-10l5 12-4 5-2 3-1-14-1-4z" fill="#52424B"/>
<path transform="translate(563,528)" d="m0 0h1v6h-6v19h-8l3-2 2-10 2-7h-2v-2h4l1-2 3 1z" fill="#684E56"/>
<path transform="translate(391,903)" d="m0 0h1v10l-5 5-7 4-4-1 5-2h2l1-4 5-10z" fill="#4B4F57"/>
<path transform="translate(332,560)" d="m0 0h1l1 7 1 2 3-1 11 3v2l3 1h-14l-1 2-1-3-3-1-1-2z" fill="#8F7473"/>
<path transform="translate(287,330)" d="m0 0h1l-1 10v21l3 12 2 3-1 3-3-4-3-11-1-7v-14z" fill="#6B565A"/>
<path transform="translate(622,334)" d="m0 0h2l2 2h1v13l-1 2h6v1h-10z" fill="#DADBDA"/>
<path transform="translate(519,878)" d="m0 0 4 1-2 1v3l4 3 1 5-3-2-5 2-3-2v-7z" fill="#6D5057"/>
<path transform="translate(494,912)" d="m0 0h11l13 2 1-2 1 4h-20l-1 3-4-1-2-2z" fill="#AD7772"/>
<path transform="translate(358,762)" d="m0 0h4l-1 3-16 5-4-1h-5l1-2 15-4z" fill="#473741"/>
<path transform="translate(710,608)" d="m0 0 6 3v3l-2 1h-6l-2 7-5-1 2-1 1-7 3-4z" fill="#29656B"/>
<path transform="translate(409,891)" d="m0 0h3v14l-1 8-3 1v-22z" fill="#5E7C86"/>
<path transform="translate(394,734)" d="m0 0h17v1h-12v7l-1 5-2-2-1-4-12-1 2-2h8z" fill="#6A5459"/>
<path transform="translate(424,618)" d="m0 0h13l-4 1v10l-3 1-1-4h-2l-5-6z" fill="#835251"/>
<path transform="translate(322,400)" d="m0 0 1 3-3 6 11 1h6v3l-3 2-4-1 1-1h-8l-8-2z" fill="#614B54"/>
<path transform="translate(418,908)" d="m0 0h1v13l-3 1v2h-8l4-3 2-9h2v-2h2z" fill="#286268"/>
<path transform="translate(332,619)" d="m0 0h17l3 2h-3v3h-2v-4l-6 1-1 4h-7l-5-1 1-4z" fill="#413036"/>
<path transform="translate(362,578)" d="m0 0 14 1 12 4v1h-10l-19-3z" fill="#191822"/>
<path transform="translate(468,748)" d="m0 0h1l2 26v9h-2l-2-20v-14z" fill="#C4A29B"/>
<path transform="translate(503,576)" d="m0 0h9l-3 2-2 11-1 3h-2l-1 2z" fill="#B88E87"/>
<path transform="translate(313,410)" d="m0 0 12 2h6l1 2-2 1-13 1h-12l4-3z" fill="#6A6164"/>
<path transform="translate(326,377)" d="m0 0 1 4-6 15-5 8-2-1 5-10 4-15 2 2zm-13 27m-1 1m-2 1 2 1-2 1z" fill="#997F7C"/>
<path transform="translate(365,977)" d="m0 0 30 6 7 2v1h-15l-7-3-14-4z" fill="#8A6160"/>
<path transform="translate(324,746)" d="m0 0h1l2 17h2v2h11v2l-4 1h-14l-7-1v-1l10-2-1-8z" fill="#998180"/>
<path transform="translate(337,620)" d="m0 0h10v4h2v-3l3-1h9v1l-9 1v2h13v1h-25l-1-3z" fill="#29212B"/>
<path transform="translate(715,587)" d="m0 0h1v11l-2 7-3 1v-2l-2-1-1-3h3v-8h2v-3h2z" fill="#161823"/>
<path transform="translate(541,555)" d="m0 0h7v1h-5l3 8v6l4 3h-9z" fill="#2D3554"/>
<path transform="translate(730,651)" d="m0 0 2 2v9l-1 7-3-1-3-3 3-13z" fill="#B9B3B6"/>
<path transform="translate(420,500)" d="m0 0h14v1l-7 1-4 2h-3l1 13-2-1-3-9v-4l-2-1z" fill="#33252A"/>
<path transform="translate(452,815)" d="m0 0h16l3 3h-28l-3-2z" fill="#493D4B"/>
<path transform="translate(552,535)" d="m0 0 1 2-6 1-3 14 2 1h-5v-14l7-3z" fill="#996C68"/>
<path transform="translate(362,494)" d="m0 0h27l6 1v1l-19 1h-11l-5 1v2l-2-1v-3z" fill="#514A55"/>
<path transform="translate(610,275)" d="m0 0h24l3 3v31h-1v-29l-2-1-1-1-23-2z" fill="#63676D"/>
<path transform="translate(371,186)" d="m0 0h12l-1 46h-1l-1-44-9-1z" fill="#3B7F88"/>
<path transform="translate(391,913)" d="m0 0h1v6l-1 2 3 1v1l-20 1 1-2 9-3 6-4z" fill="#392B32"/>
<path transform="translate(408,821)" d="m0 0h4l1 2 1-2h2l-1 5 4-1 8 1v2h-14l-5-1v-2l-3-1 3-1z" fill="#43353E"/>
<path transform="translate(321,715)" d="m0 0h21l-4 1v4l-9-2h-4v2h-13l3-2h6z" fill="#47474F"/>
<path transform="translate(716,656)" d="m0 0 2 4v6l13 3v1l-11-1-8-2v-6h2v-4z" fill="#67757E"/>
<path transform="translate(332,609)" d="m0 0 6 5v2l9 2v1l-16 1-1-2v-7z" fill="#936664"/>
<path transform="translate(627,400)" d="m0 0h1v36l15-1v2l-17 1-16-1v-1l16-1z" fill="#57444E"/>
<path transform="translate(568,903)" d="m0 0h1v12h-22l-11-3 3-4 4 1 4 3 3 1 18 1z" fill="#3A282C"/>
<path transform="translate(388,882)" d="m0 0h10l10 3 3 3h-8l-14-3z" fill="#745357"/>
<path transform="translate(338,716)" d="m0 0h4l1 9v11h5v1h-7l-1-1z" fill="#A49A9C"/>
<path transform="translate(521,575)" d="m0 0 4 1h-2l2 16h14l1 2h-20z" fill="#3E3C4A"/>
<path transform="translate(403,497)" d="m0 0h19l9 1v2h-25l-3-1z" fill="#D6D1D0"/>
<path transform="translate(467,95)" d="m0 0 10 1-3 3-1 13h-3l-1-9h-1v-6l-4-1z" fill="#827D80"/>
<path transform="translate(440,738)" d="m0 0h22l-1 2h-12l-1 3-16-2v-1z" fill="#201B24"/>
<path transform="translate(540,575)" d="m0 0h1l1 21-6 1h-14l-6-1 4-2h20z" fill="#59464F"/>
<path transform="translate(512,873)" d="m0 0h8v3l6 1 1 3-8-1-5 3-2 2z" fill="#907777"/>
<path transform="translate(560,278)" d="m0 0h1v28h2v2l4 2h-6l-2-6v-24z" fill="#9A736F"/>
<path transform="translate(421,750)" d="m0 0h7l1 2-3 8-6 1z" fill="#9F706B"/>
<path transform="translate(330,632)" d="m0 0h2l3 6-3 1-1 4 1 2-7 1 1-11 1 4h2z" fill="#A1716D"/>
<path transform="translate(477,543)" d="m0 0h1l1 55 5 1-3 1-4-2-1-4z" fill="#B0807A"/>
<path transform="translate(489,167)" d="m0 0 1 3-6 12-2 1 2 2h-8v-2l5-5 6-9z" fill="#286268"/>
<path transform="translate(406,872)" d="m0 0h4l2 10 2-2v8h-3l-1-6-4-2z" fill="#A17871"/>
<path transform="translate(294,414)" d="m0 0 5 1-1 2h-3v55h-1z" fill="#596D76"/>
<path transform="translate(440,161)" d="m0 0h13l1 3v19h-1l-3-17-4-2 1-1-7-1z" fill="#2E7277"/>
<path transform="translate(373,184)" d="m0 0h9l-2 2-17 2h-11l-5-1v-1z" fill="#D2D5D4"/>
<path transform="translate(497,909)" d="m0 0h10l9 1 2 1v3l-13-1-6-2z" fill="#EAE7E3"/>
<path transform="translate(342,739)" d="m0 0 2 4 2 9v11h-2l-4-23z" fill="#A5999A"/>
<path transform="translate(419,617)" d="m0 0 5 1-2 1 1 14-1 1h-8l4-3v-13z" fill="#966765"/>
<path transform="translate(364,582)" d="m0 0 9 1 3 3 3 2h-8l-10-2v-3z" fill="#895B5C"/>
<path transform="translate(548,575)" d="m0 0 4 1h-2l3 15 2 3-1 1h-13v-1l9-2-2-8z" fill="#695057"/>
<path transform="translate(433,520)" d="m0 0 2 3-1 7h-2l-1 4h-5l1-6 5-6z" fill="#845150"/>
<path transform="translate(626,438)" d="m0 0h2v17h14l-2 2h-14z" fill="#986764"/>
<path transform="translate(354,788)" d="m0 0 1 2 14-1v3l-6 2v-2l-10 2-4 1v2l-2-1v-2l5-3h2z" fill="#7B6466"/>
<path transform="translate(540,636)" d="m0 0h15l7 1v2h-25z" fill="#766061"/>
<path transform="translate(412,473)" d="m0 0h5l-1 3-2 1h-32l1-2h29z" fill="#677A83"/>
<path transform="translate(525,901)" d="m0 0 6 1v4l-4 4h-4l-2 4-2-1 1-4 4-2z" fill="#845150"/>
<path transform="translate(459,502)" d="m0 0h8l-2 2-1 40h-1l-1-37 1-2-5-1z" fill="#997F7D"/>
<path transform="translate(386,505)" d="m0 0 6 1 9 6 2 3v3l-5-2v-2l-4-2-6-4-4-2z" fill="#604B53"/>
<path transform="translate(409,634)" d="m0 0h6l1 12-4 1-2-6z" fill="#5E4A52"/>
<path transform="translate(379,506)" d="m0 0 5 1-2 2-9 3-2 5-3 3-2 3-2-1 4-8h2l2-4z" fill="#4D6169"/>
<path transform="translate(456,480)" d="m0 0h2l1 2v11l-4 1-1-1v-10z" fill="#966866"/>
<path transform="translate(359,374)" d="m0 0 1 4-5 16-6 10-3 2 2-6 3-3 5-13 2-8z" fill="#1F2840"/>
<path transform="translate(379,886)" d="m0 0 3 1v2h2v2l5 1 2 7-10-3-1-7z" fill="#5B5158"/>
<path transform="translate(367,570)" d="m0 0 3 1 1 5 4-2 3-4 2 1-3 5-3 2h-8l-2-1v-3l2-1z" fill="#936766"/>
<path transform="translate(375,537)" d="m0 0h1v8h-2l-1 10-2 6h-1v-10l3-12z" fill="#747C83"/>
<path transform="translate(563,514)" d="m0 0h1v14l-1-3-10 4h-5l2-3 7-3 5-3z" fill="#997F7D"/>
<path transform="translate(540,915)" d="m0 0 12 1-4 2h-4l1 2-9-1-12-2v-1z" fill="#A8746F"/>
<path transform="translate(527,816)" d="m0 0h1l1 6 3 2v5l-3 1-1 11-2-3z" fill="#AA706C"/>
<path transform="translate(574,811)" d="m0 0h7v1l35 1v1h-43l-2-2z" fill="#49626A"/>
<path transform="translate(358,795)" d="m0 0 2 1 1 5 5 14-3 1-7-17v-2h2z" fill="#A09495"/>
<path transform="translate(329,773)" d="m0 0h2l4 20 4 2-7 1h-9l4-2 3-2h3l-3-13z" fill="#9C8C8D"/>
<path transform="translate(339,736)" d="m0 0h23v2l-22 1h-11l4-2z" fill="#6E575B"/>
<path transform="translate(560,525)" d="m0 0h3v6l-8 1v2l-7-1v-1l5-1 2-4z" fill="#996B67"/>
<path transform="translate(343,757)" d="m0 0h1v6h2l1-3v2l13-2h6l-2 2-21 4-6-1v-1l5-1z" fill="#7A6769"/>
<path transform="translate(428,741)" d="m0 0h15l2 2-8 2h-9l-2-1v-2z" fill="#3D3849"/>
<path transform="translate(522,534)" d="m0 0 1 2 7-2h10l-1 2-11 2-3 2-2 6h-1z" fill="#536167"/>
<path transform="translate(318,303)" d="m0 0 5 1 7 15-1 3-2-2-2-3-3-7-2 1z" fill="#7A7478"/>
<path transform="translate(423,907)" d="m0 0h1v15l2 1 22 2v1h-24l-1-1z" fill="#AEA3A5"/>
<path transform="translate(493,910)" d="m0 0 7 1v1h-6l1 6h-2l1 4-5 1h-7v-2l3-2 6 1 1-9z" fill="#ADA3A4"/>
<path transform="translate(435,616)" d="m0 0 4 1v2h4l-1-3 3 1 1 7-1 2-5 1-2-7-4-3z" fill="#A6736D"/>
<path transform="translate(481,534)" d="m0 0h21l1 1v18h10v1h-11l-1-18h-21z" fill="#947371"/>
<path transform="translate(401,798)" d="m0 0 10 1 1 2h-2l-2 6-4 1-3-7z" fill="#905D5D"/>
<path transform="translate(567,727)" d="m0 0h1l2 12 8 6-4 1v-2l-4-1-5-4-1-4z" fill="#3A7C85"/>
<path transform="translate(447,479)" d="m0 0 4 1-2 1v10l1 3 2 2-5-1-2-2v-13z" fill="#473B48"/>
<path transform="translate(430,237)" d="m0 0h5l-1 4-1 27h-1l-1-20-1-3z" fill="#A8837E"/>
<path transform="translate(464,56)" d="m0 0 2 1v36l-4-1 2-1z" fill="#3B7F88"/>
<path transform="translate(359,981)" d="m0 0h4v3l22 4v1h-7l-18-3-3-2v-2z" fill="#B7A7A9"/>
<path transform="translate(529,973)" d="m0 0 16 1v1l-14 1-7 1-1 2v-2l-7 1h-8l1-2 19-2z" fill="#9D6E6A"/>
<path transform="translate(371,620)" d="m0 0h25v5l-2-2 1-2-17 1-2 2h-9l-2-3z" fill="#352830"/>
<path transform="translate(373,527)" d="m0 0h1l-1 9-4 14h-1v-9l3-11z" fill="#B7B1B5"/>
<path transform="translate(646,496)" d="m0 0 4 2 3 4h-18v-1h6l2-4z" fill="#A9A0A1"/>
<path transform="translate(551,490)" d="m0 0 5 1-1 5-2 1h-7v-4z" fill="#9D8988"/>
<path transform="translate(646,456)" d="m0 0h3v16h-1v-7l-6-1v-4z" fill="#E2CFC4"/>
<path transform="translate(465,114)" d="m0 0h3v19l-3-1z" fill="#57676E"/>
<path transform="translate(382,896)" d="m0 0 4 1 1 6-1 3h-4-2v-8h2z" fill="#868D93"/>
<path transform="translate(406,855)" d="m0 0 2 2v10l-2 10h-1l-1-13 1-8z" fill="#A86C68"/>
<path transform="translate(418,784)" d="m0 0 2 3v7l1 2-2 1-2 14h-1l-2-14-4-2h8z" fill="#A4827F"/>
<path transform="translate(537,732)" d="m0 0 3 1v2l-4 2v2l10 2 8 2v1h-7l-11-2-2-2v-6z" fill="#56434B"/>
<path transform="translate(723,699)" d="m0 0 7 1 2 4h-2l-1 2-9 2v-5l2-1h5l-4-1z" fill="#3D6C71"/>
<path transform="translate(464,479)" d="m0 0h3l2 13-3 5h-13v-1l9-1 3-2z" fill="#4B3E48"/>
<path transform="translate(499,141)" d="m0 0 2 1-5 6h-2v2l-5 5-4 5v1h-5l-1-2 5-3 10-10h2l2-4z" fill="#2C7174"/>
<path transform="translate(366,882)" d="m0 0h7l10 2v1h-9l-3 1v2l-5 2z" fill="#55676F"/>
<path transform="translate(388,802)" d="m0 0 9 3-1 4-5 2h-3l-1-8z" fill="#A76B67"/>
<path transform="translate(332,774)" d="m0 0 2 2 4 12-1 4h-3l-3-14z" fill="#5D4A52"/>
<path transform="translate(735,620)" d="m0 0h3l-1 19-3-2v-14z" fill="#3F3843"/>
<path transform="translate(329,354)" d="m0 0h1l1 11 2-2-1 8-3 6-2-1z" fill="#987E7C"/>
<path transform="translate(506,163)" d="m0 0h1v20h-3v-17z" fill="#3E838C"/>
<path transform="translate(363,982)" d="m0 0 11 2 10 2 15 1v1h-17l-16-3-3-1z" fill="#ADA1A1"/>
<path transform="translate(341,768)" d="m0 0 3 1-1 2-5 1h-11l-4-2 2-1z" fill="#2C252F"/>
<path transform="translate(736,662)" d="m0 0h1v7l3-1v2l-2 1 8 2v1l-14 2v-4h2v-2h2z" fill="#615C63"/>
<path transform="translate(483,576)" d="m0 0h1v18h-3v-17z" fill="#44535B"/>
<path transform="translate(559,278)" d="m0 0 1 2v24l1 5 6 1v2l-3 1-6-4v-30z" fill="#C19A92"/>
<path transform="translate(384,924)" d="m0 0 18 1 20 1v1h-22l-12-1-6 1v-2z" fill="#A4807B"/>
<path transform="translate(560,712)" d="m0 0h1v22h-1l-1-15h-7v-2z" fill="#805959"/>
<path transform="translate(735,656)" d="m0 0h1v14l-2 1h-6l3-2 3-12z" fill="#3E3C4C"/>
<path transform="translate(480,555)" d="m0 0h3v19h-3z" fill="#9D706B"/>
<path transform="translate(520,530)" d="m0 0h4v2h13v2l-14 2v-2l-5-1 2-1z" fill="#97807F"/>
<path transform="translate(455,165)" d="m0 0 2 3 1 14 1 2h-6z" fill="#3A7E87"/>
<path transform="translate(386,898)" d="m0 0 5 1 1 4-4 2-3 7h-2v-7l3 1z" fill="#6E7C84"/>
<path transform="translate(527,808)" d="m0 0 1 4 8 1 6 2-2 2-12-1z" fill="#55434A"/>
<path transform="translate(340,738)" d="m0 0 4 1-4 1-1 4-1-1-5 7h-1v-6l2-3-1-2z" fill="#52414A"/>
<path transform="translate(429,652)" d="m0 0 4 1v2h10v2l-5 1h-7v-2l-6-1 1-2z" fill="#684E56"/>
<path transform="translate(340,589)" d="m0 0 6 1 1 5-2 4-3-3v-2h-2v-2h-3v-2z" fill="#A86C68"/>
<path transform="translate(671,195)" d="m0 0 24 1v2h-23z" fill="#6AA6AD"/>
<path transform="translate(365,883)" d="m0 0h1l1 6 4-1v-2h8l1 5-4-2h-5l-1 2h-2l-3 3z" fill="#988381"/>
<path transform="translate(472,882)" d="m0 0h6v3h-30v-1z" fill="#B48882"/>
<path transform="translate(464,739)" d="m0 0 5 1v6l-3 3h-10v-1l5-1 1-3 3-1 1-2-3-1z" fill="#59444D"/>
<path transform="translate(528,541)" d="m0 0h3l1 3-1 7-4 1v-6h-3v-4z" fill="#28335A"/>
<path transform="translate(374,974)" d="m0 0h10l15 4 1 2-8-1-18-4z" fill="#6D4B4F"/>
<path transform="translate(345,769)" d="m0 0 1 3-3 1-1 5v8l-2-1-2-6v-6l5-3z" fill="#58464F"/>
<path transform="translate(436,682)" d="m0 0 5 1 3 6-1 2 2 1-2 2-8-10z" fill="#57464F"/>
<path transform="translate(540,561)" d="m0 0h1v14l-1 18h-1v-17l-7-1v-1h7z" fill="#1C1923"/>
<path transform="translate(628,439)" d="m0 0 2 1 1 8-1 1 2 2 2 1v2l3 1h-9z" fill="#C59F97"/>
<path transform="translate(455,383)" d="m0 0h14l1 2 10 1-4 2-22-1z" fill="#A7807C"/>
<path transform="translate(550,884)" d="m0 0 2 1v3h2v9l-1 2h-2l-1-2z" fill="#614B54"/>
<path transform="translate(455,814)" d="m0 0h18l2 3v6l-3 1v-7l-4-1-13-1z" fill="#866868"/>
<path transform="translate(421,738)" d="m0 0h19l-2 2-15 3 1-4z" fill="#413238"/>
<path transform="translate(718,623)" d="m0 0h2v13h3v2l-8-1 1-5 1-1z" fill="#6D7D85"/>
<path transform="translate(422,479)" d="m0 0 3 1 1 2 1 14-4 2 1-6-2-8z" fill="#865757"/>
<path transform="translate(479,923)" d="m0 0h3l-1 7h-13l1-2h6l2 1v-2l-2-1-1-2z" fill="#D7D9D8"/>
<path transform="translate(511,874)" d="m0 0h1l1 8 3-2-2 6-2 14h-1z" fill="#B79691"/>
<path transform="translate(396,760)" d="m0 0 18 1v2l-23 1v-1h6z" fill="#43343B"/>
<path transform="translate(561,736)" d="m0 0 4 1 5 5 4 3h-8v-2l-4-2z" fill="#4B5F68"/>
<path transform="translate(350,580)" d="m0 0h6l1 2h-3l-1 4-1 2-4-1v-4l-4-1h6z" fill="#8E6363"/>
<path transform="translate(569,504)" d="m0 0 2 1-3 6-2 2-1 22h-1v-24z" fill="#516870"/>
<path transform="translate(396,879)" d="m0 0 5 1 5 2v3l-8-2-10-1 4-2z" fill="#8E5D5D"/>
<path transform="translate(522,555)" d="m0 0h6l-3 1v17h-3z" fill="#9D726C"/>
<path transform="translate(630,495)" d="m0 0 3 1 1 5h-6l-8-2 2-2h6z" fill="#59454D"/>
<path transform="translate(514,424)" d="m0 0 2 3 1 12 1 1 9 1v1h-11l-2-1z" fill="#3F2E33"/>
<path transform="translate(464,132)" d="m0 0 2 2-1 1-9 1h-16v-1z" fill="#E9EAE7"/>
<path transform="translate(528,886)" d="m0 0 7 3v5l-3 1v-2l-4 1z" fill="#948282"/>
<path transform="translate(438,166)" d="m0 0 2 1-8 15 2 1-8-1 5-5z" fill="#2B6F72"/>
<path transform="translate(408,977)" d="m0 0 5 2 3 2 12 1v1h-18l-4-5z" fill="#8F6160"/>
<path transform="translate(338,972)" d="m0 0 4 1 8 3 7 2 1 3-9-2-8-4z" fill="#C49F97"/>
<path transform="translate(370,785)" d="m0 0h5v2l-4 1v4h-2v-3l-9 2-2-2z" fill="#9D8A8A"/>
<path transform="translate(560,675)" d="m0 0h1v16h-1v-7h-4l-2-4 5-3z" fill="#9C7772"/>
<path transform="translate(353,575)" d="m0 0 8 1 5 1-3 5h-6l-2-5z" fill="#333040"/>
<path transform="translate(327,314)" d="m0 0h2l5 10v6l1 5-1-2h-2l-4-16z" fill="#63676D"/>
<path transform="translate(564,896)" d="m0 0 3 1v8l-1 5-2-4-1-4-2-1v-3z" fill="#286268"/>
<path transform="translate(421,739)" d="m0 0h3v3h2v2l7 1-3 2-6-1-2 3-1-3z" fill="#212334"/>
<path transform="translate(347,647)" d="m0 0h1v18l-2 4h-2v-11l2-2z" fill="#9E7F7C"/>
<path transform="translate(375,626)" d="m0 0h9v1l-6 1-2 1v11l-1 5h-1v-17z" fill="#966866"/>
<path transform="translate(716,612)" d="m0 0 8 2v1l-8 1v19l-2 1v-21z" fill="#37505C"/>
<path transform="translate(559,577)" d="m0 0h2l2 16-5 1z" fill="#39282C"/>
<path transform="translate(534,542)" d="m0 0h4l1 7-1 1h-6z" fill="#263156"/>
<path transform="translate(402,161)" d="m0 0h2v2h-2l-1 5-7-1h-10l1-2 14-1z" fill="#2C7073"/>
<path transform="translate(407,987)" d="m0 0h14v1h-5v2h-12l-3-2z" fill="#AAA2A3"/>
<path transform="translate(536,889)" d="m0 0h1v15l-8 7-6 1v-2l8-3 3-3 1-3z" fill="#4D3F49"/>
<path transform="translate(614,806)" d="m0 0 5 1 1 2v7l-3-4-7-1z" fill="#ACA3A5"/>
<path transform="translate(360,792)" d="m0 0h3v2l-5 1v2h-2v2l-3-1-4-3 4-2z" fill="#40333D"/>
<path transform="translate(531,554)" d="m0 0h8l-1 12-3-2v-7z" fill="#684E56"/>
<path transform="translate(493,173)" d="m0 0h1l2 12h-6l-2-2 2-1z" fill="#1F2840"/>
<path transform="translate(506,149)" d="m0 0 2 2v6h-10l2-3h3v-3z" fill="#1F2840"/>
<path transform="translate(509,921)" d="m0 0 13 2 3 2h-8l-6-1-1 2-3-1z" fill="#DCD1C9"/>
<path transform="translate(414,818)" d="m0 0h6l-2 1 1 3 2 2-2 2h-4l1-5h-2l-1 3-1-4z" fill="#1F2840"/>
<path transform="translate(362,722)" d="m0 0 2 2-2 6v2l2 2-8 1 2-1 1-8z" fill="#B7A7AA"/>
<path transform="translate(487,641)" d="m0 0h5l2 6-5 1-3-5z" fill="#5C4952"/>
<path transform="translate(367,530)" d="m0 0 1 4-2 11h-2l-1 4-1-2 1-9z" fill="#7A7D82"/>
<path transform="translate(425,450)" d="m0 0h1v20h-3v2l-5 3-2-1 3-3 5-4z" fill="#594850"/>
<path transform="translate(532,886)" d="m0 0h3l1 2v13l-3 5-3 2 2-5 2-7v-7l-3-2z" fill="#665057"/>
<path transform="translate(530,873)" d="m0 0 14 1 7 2v1h-9l-12-3z" fill="#524048"/>
<path transform="translate(393,735)" d="m0 0h5l-1 5h-14l2-2h8z" fill="#50414A"/>
<path transform="translate(739,645)" d="m0 0 6 1 3 2h-7l-1 2v12l-2-1v-14l-2-1z" fill="#ADA5A7"/>
<path transform="translate(348,626)" d="m0 0h5v5l-3-1-2 14h-1v-14z" fill="#BC948D"/>
<path transform="translate(501,570)" d="m0 0 1 4h17v1l-16 1-1 14h-1l-1-16z" fill="#3A292D"/>
<path transform="translate(539,537)" d="m0 0h2v15l-7 1 4-4z" fill="#47343A"/>
<path transform="translate(367,974)" d="m0 0h7l13 3-2 2-7-1-11-3z" fill="#2A2027"/>
<path transform="translate(430,136)" d="m0 0h16v1l-23 3-4-1z" fill="#D9D9D7"/>
<path transform="translate(390,911)" d="m0 0h2l-2 5-10 6-4-1 8-4 4-4h2z" fill="#433948"/>
<path transform="translate(531,805)" d="m0 0h9l12 2v1l-14-1v1h-10z" fill="#6A4C50"/>
<path transform="translate(590,616)" d="m0 0h1l1 18 4 3-4 1-3-3v-14z" fill="#1F2941"/>
<path transform="translate(622,334)" d="m0 0h2l2 2h1v10h-3l-2-10z" fill="#F0F0ED"/>
<path transform="translate(486,167)" d="m0 0 2 1-9 14-3 2-3-1 6-5z" fill="#2B7073"/>
<path transform="translate(358,977)" d="m0 0h7l8 3 4 2v1l-9-1-10-4z" fill="#997C79"/>
<path transform="translate(447,922)" d="m0 0 6 1v2h-18l1-2z" fill="#AAA2A3"/>
<path transform="translate(560,697)" d="m0 0h1v15h-2l-2-4 2-9z" fill="#B89E99"/>
<path transform="translate(391,698)" d="m0 0 5 1 8 4 2 3v5l-2-4-10-6z" fill="#966866"/>
<path transform="translate(552,535)" d="m0 0 1 2-6 1-3 14-2-1 2-12 4-3z" fill="#905D5D"/>
<path transform="translate(531,536)" d="m0 0h5l-4 1 1 3-7 3-2-1 2-4z" fill="#414C54"/>
<path transform="translate(448,980)" d="m0 0 16 1v1l-12 1h-10v-1z" fill="#875A5A"/>
<path transform="translate(393,824)" d="m0 0 11 1 4 2-8 3h-2v-4l-5-1z" fill="#815658"/>
<path transform="translate(732,678)" d="m0 0h12v1l-7 1v10l-1 5h-1l1-15h-4z" fill="#9A9599"/>
<path transform="translate(328,667)" d="m0 0h8l2 2-2 1-13 1 1-3z" fill="#875A59"/>
<path transform="translate(373,579)" d="m0 0 5 1 10 3v1h-10l-8-1v-1l5-1z" fill="#36292F"/>
<path transform="translate(395,162)" d="m0 0h6l-2 3h-15l2-2z" fill="#50868D"/>
<path transform="translate(470,113)" d="m0 0 2 3-1 16-2-3v-15z" fill="#A7A2A3"/>
<path transform="translate(337,968)" d="m0 0h2l3 3 3 2 13 2v1l-14-1-7-3-1-3z" fill="#A3807C"/>
<path transform="translate(412,709)" d="m0 0h2v3l5 1v2h-16v-1l9-1-2-2z" fill="#55444D"/>
<path transform="translate(733,626)" d="m0 0h1l1 11 1 2-2 2v-2l-6 1-4-1v-2l9 1z" fill="#61666E"/>
<path transform="translate(435,619)" d="m0 0h3v17h-1l-1-12-2 4v-8z" fill="#3C3444"/>
<path transform="translate(352,620)" d="m0 0h9v1l-9 1v2h13v1h-15l-1-4z" fill="#31242A"/>
<path transform="translate(518,562)" d="m0 0h1v12h-15v-1l12-1v-4h2z" fill="#4A4951"/>
<path transform="translate(541,555)" d="m0 0h7v1h-5l1 6h-2l1 10-2 1z" fill="#3F424E"/>
<path transform="translate(645,438)" d="m0 0h3v6h-1l-1 5 2 1v3h-2v3h-2z" fill="#D6BBAF"/>
<path transform="translate(371,186)" d="m0 0h12v7h-3v-5l-9-1z" fill="#478189"/>
<path transform="translate(456,135)" d="m0 0h11l-1 4-2-1h-8l-3 1v-3z" fill="#497F87"/>
<path transform="translate(384,812)" d="m0 0 2 1-3 2-5 1-6 2v-2h-5v-1z" fill="#997F7D"/>
<path transform="translate(355,584)" d="m0 0 3 1v4l2 1-2 2v-2h-2l-1 12h-1v-16z" fill="#A2827E"/>
<path transform="translate(563,528)" d="m0 0h1v6h-6v4h-2l1-4h-2v-2h4l1-2 3 1z" fill="#755E60"/>
<path transform="translate(365,901)" d="m0 0h1l1 8 3 9-1 3-4-9z" fill="#B89691"/>
<path transform="translate(427,459)" d="m0 0h1v16l-1 1-8-1 1-2h7z" fill="#976966"/>
<path transform="translate(318,400)" d="m0 0 3 1-2 5-3 4-2-1 2-6z" fill="#826363"/>
<path transform="translate(339,780)" d="m0 0h1l2 11-5 1v-7z" fill="#453A48"/>
<path transform="translate(419,781)" d="m0 0 3 2v9l-2 3-1-3z" fill="#AB7570"/>
<path transform="translate(432,677)" d="m0 0 5 1 1 4-3 1-1-1-11-1v-1h9z" fill="#69575D"/>
<path transform="translate(743,589)" d="m0 0 2 2-3 18h-1v-13z" fill="#CECECE"/>
<path transform="translate(364,545)" d="m0 0h1v9l-2 7h-1v-11z" fill="#897E7F"/>
<path transform="translate(426,534)" d="m0 0h3l-3 10-2 4v-12h2z" fill="#776162"/>
<path transform="translate(350,302)" d="m0 0 4 2 1 6-5-2-1-5z" fill="#1F2840"/>
<path transform="translate(485,887)" d="m0 0 2 1v14h-2l-1-14z" fill="#D7D9D8"/>
<path transform="translate(361,818)" d="m0 0 3 1-4 5 1 2-7-1 5-5z" fill="#A38582"/>
<path transform="translate(347,764)" d="m0 0h3v2l-9 3h-5l1-2z" fill="#4E404A"/>
<path transform="translate(477,728)" d="m0 0 3 1-8 6-4 1-2-2 3-2h4v-2z" fill="#9F6E6B"/>
<path transform="translate(321,715)" d="m0 0 4 1 1 2-1 2h-13l3-2h6z" fill="#58464F"/>
<path transform="translate(541,533)" d="m0 0 8 1-1 3-7 2z" fill="#A67B75"/>
<path transform="translate(365,496)" d="m0 0 4 1-5 3-1 2h-3v2l-2-1v-3h2v-2z" fill="#3A282C"/>
<path transform="translate(646,425)" d="m0 0 3 2v7l-3 3-1-8z" fill="#DDC7BC"/>
<path transform="translate(642,424)" d="m0 0 2 1v12l-3-4v-7z" fill="#AEA6A8"/>
<path transform="translate(644,419)" d="m0 0 2 2v13l-2 4-1-18z" fill="#D7D9D8"/>
<path transform="translate(325,364)" d="m0 0h1l1 13-2 5h-1v-10z" fill="#A29595"/>
<path transform="translate(383,983)" d="m0 0 11 1 8 1v1h-15z" fill="#956A67"/>
<path transform="translate(488,897)" d="m0 0 2 4 3 1 1 6-2 3v-8h-5v-5z" fill="#A7A2A3"/>
<path transform="translate(491,886)" d="m0 0 2 2 1 9-3 4z" fill="#F1F1EE"/>
<path transform="translate(530,876)" d="m0 0h5v2l-2 1 2 7-4-3-2-6z" fill="#51434B"/>
<path transform="translate(388,820)" d="m0 0 8 1 3 2v2l-9-1v-3z" fill="#4D3F4A"/>
<path transform="translate(408,821)" d="m0 0h4v6h-4v-2l-3-1 3-1z" fill="#443A48"/>
<path transform="translate(421,819)" d="m0 0h8l4 2v1h-9l-4-2z" fill="#414C54"/>
<path transform="translate(386,814)" d="m0 0h9v1l-6 2 1 2-5 1v-5z" fill="#443946"/>
<path transform="translate(346,769)" d="m0 0 3 1 3 7-1 4-2-1z" fill="#A29090"/>
<path transform="translate(427,732)" d="m0 0 2 2v3l-8 1 1-3-4-1h9z" fill="#A0746F"/>
<path transform="translate(703,625)" d="m0 0h2l1 12 4 3-4 2-2-3z" fill="#286067"/>
<path transform="translate(353,603)" d="m0 0h1v8h-2l-1 8h-1v-9z" fill="#BD958E"/>
<path transform="translate(736,590)" d="m0 0h3v8h-2v5h-1z" fill="#353B4B"/>
<path transform="translate(379,506)" d="m0 0 5 1-2 2-9 3-1 2 1-4 3-3z" fill="#556167"/>
<path transform="translate(319,389)" d="m0 0 1 4-6 11-4 2 8-14z" fill="#7F6263"/>
<path transform="translate(298,316)" d="m0 0 3 1-6 4-4 6-2-2 4-7z" fill="#715A5E"/>
<path transform="translate(446,136)" d="m0 0h7l-1 2-4 1h-7l-4-2z" fill="#55878F"/>
<path transform="translate(386,886)" d="m0 0h3l5 10v3h-2l-4-9v-2h-2z" fill="#264655"/>
<path transform="translate(415,695)" d="m0 0h1v7l-2 5h-2l1-9z" fill="#5C4952"/>
<path transform="translate(733,650)" d="m0 0h1l1 6-3 13h-1l1-16z" fill="#575960"/>
<path transform="translate(738,642)" d="m0 0 9 1 2 2-13 1z" fill="#52434A"/>
<path transform="translate(442,616)" d="m0 0 3 1 1 7-1 2-3-1z" fill="#9E736C"/>
<path transform="translate(422,484)" d="m0 0 2 3 1 9-3 2z" fill="#986D6A"/>
<path transform="translate(321,308)" d="m0 0 3 4 2 7-3 2-2-6z" fill="#A89FA1"/>
<path transform="translate(391,913)" d="m0 0h1v6l-1 2-8 1 2-2 3-1z" fill="#1B2032"/>
<path transform="translate(403,884)" d="m0 0 5 1 3 3h-8l-5-1v-1l5-1z" fill="#756364"/>
<path transform="translate(414,803)" d="m0 0h1v13l-4-1 1-6h2z" fill="#9B7873"/>
<path transform="translate(364,789)" d="m0 0h5v3l-6 2v-2l-3-1z" fill="#6E575B"/>
<path transform="translate(531,776)" d="m0 0 2 4v9h-2l-1 3z" fill="#AD7C77"/>
<path transform="translate(610,749)" d="m0 0 3 1v10l-2 3z" fill="#E2CFC4"/>
<path transform="translate(349,667)" d="m0 0 10 1 2 2h-14v-2z" fill="#9B7571"/>
<path transform="translate(595,637)" d="m0 0 4 1 6 4-3 1-5-2-2-1z" fill="#244153"/>
<path transform="translate(435,623)" d="m0 0 2 1v10l-3 2v-8z" fill="#254757"/>
<path transform="translate(707,609)" d="m0 0 3 1-1 2h-2l-1 5-2 4-3-1h2l1-7z" fill="#3A7D86"/>
<path transform="translate(358,582)" d="m0 0h6l-3 3 4 2v1h-7l-1-5z" fill="#916664"/>
<path transform="translate(331,410)" d="m0 0h6v3l-3 2-4-1z" fill="#414C54"/>
<path transform="translate(295,287)" d="m0 0 2 1-1 4-3 1-1 2-4-2z" fill="#5C4D55"/>
<path transform="translate(493,910)" d="m0 0 7 1v1h-6l1 6h-2l-1 3v-10z" fill="#B8918B"/>
<path transform="translate(383,898)" d="m0 0h3l1 5-1 3-3-1z" fill="#B1AAAC"/>
<path transform="translate(355,817)" d="m0 0 5 2-4 5h-3l-1-4h3z" fill="#886B6B"/>
<path transform="translate(380,814)" d="m0 0 3 1-10 5-4 1v-2z" fill="#856767"/>
<path transform="translate(391,795)" d="m0 0h9v3h-9z" fill="#875E5E"/>
<path transform="translate(406,759)" d="m0 0h15l-2 4h-4v-2l-9-1z" fill="#9A7F7D"/>
<path transform="translate(343,751)" d="m0 0 3 1v11h-2z" fill="#ACA0A2"/>
<path transform="translate(432,740)" d="m0 0h17l-1 3-16-2z" fill="#1F2840"/>
<path transform="translate(480,595)" d="m0 0 15 2v1l-13 1-3-2z" fill="#9F726C"/>
<path transform="translate(553,479)" d="m0 0h5l-3 1-1 4h-7l4-4z" fill="#5E4B54"/>
<path transform="translate(562,381)" d="m0 0 3 3 11 1v1l-16 1z" fill="#AA9291"/>
<path transform="translate(638,363)" d="m0 0 2 4-1 2v14l-2-4v-14z" fill="#D6BBAF"/>
</svg>
